<?xml version="1.0"?>
<svg xmlns="http://www.w3.org/2000/svg" version="1.2" baseProfile="tiny" width="800" height="392" viewBox="0 0 800 392" stroke-linecap="round" stroke-linejoin="round">
<g id="geoBoundaries-BTN-ADM1 (2)">
<path d="M 779.28 286.91 744.71 287.72 664.96 336.72 653.94 324.84 627.56 285.25 654.46 248.35 645.18 221.74 669.6 239.09 719.42 212.06 777.05 213.94 798.54 257.61 779.28 286.91 Z"/>
<path d="M 719.42 212.06 669.6 239.09 645.18 221.74 609.01 206.62 635.66 94.42 646.68 91.89 676.58 105.42 686.89 139.58 667.86 168.97 688.89 206.26 719.42 212.06 Z"/>
<path d="M 645.18 221.74 654.46 248.35 627.56 285.25 627.25 301.2 585.47 319.3 574.42 335.55 556.6 332.86 536.36 288.64 539.8 270.06 522.48 233.31 551.39 225.94 605.9 228.87 609.01 206.62 645.18 221.74 Z"/>
<path d="M 646.68 91.89 635.66 94.42 609.01 206.62 605.9 228.87 551.39 225.94 525.11 198.68 535.84 155.69 485.77 97.36 493.81 73.86 560.26 88.86 601.75 64.73 646.68 91.89 Z"/>
<path d="M 551.39 225.94 522.48 233.31 473.41 235.35 440.5 215.66 425.62 166.69 432.91 142.37 416.41 124.35 421.61 74.96 426.48 64.1 493.81 73.86 485.77 97.36 535.84 155.69 525.11 198.68 551.39 225.94 Z"/>
<path d="M 202.67 383.1 234.66 376.91 291.71 362.55 322.45 365.69 373.46 292.89 413.89 317.31 458.24 325.59 438.64 360.04 517.26 374.29 470.4 377.02 412.47 365.6 391.13 348.69 337.74 377.78 303.4 388.25 253.4 390.87 202.67 383.1 Z"/>
<path d="M 416.41 124.35 432.91 142.37 425.62 166.69 440.5 215.66 473.41 235.35 448.22 281.51 423.04 289.66 413.89 317.31 373.46 292.89 370.55 285.34 383.15 266.38 359.8 210.32 384.12 195.48 414.89 149.46 416.41 124.35 Z"/>
<path d="M 373.46 292.89 322.45 365.69 291.71 362.55 306.92 301.95 339.77 284.82 370.55 285.34 373.46 292.89 Z"/>
<path d="M 291.71 362.55 234.66 376.91 243.42 353.78 231.35 322.69 202.22 294.62 219.66 264.21 234.25 261.21 306.92 301.95 291.71 362.55 Z"/>
<path d="M 421.61 74.96 416.41 124.35 414.89 149.46 384.12 195.48 359.8 210.32 383.15 266.38 370.55 285.34 339.77 284.82 306.92 301.95 234.25 261.21 219.66 264.21 234.25 210.78 264.59 197.99 289.25 173.71 285.9 143.81 306.31 125.24 343.13 91.43 394.55 97.95 406.18 66.17 421.61 74.96 Z"/>
<path d="M 306.31 125.24 285.9 143.81 289.25 173.71 264.59 197.99 236.49 142.23 274.5 113.76 306.31 125.24 Z"/>
<path d="M 219.66 264.21 202.22 294.62 176.39 266.01 186.67 220.23 176.8 179.75 156.34 167.45 147.04 119.2 178.66 87.09 179.09 128.31 211.85 145.66 236.49 142.23 264.59 197.99 234.25 210.78 219.66 264.21 Z"/>
<path d="M 406.18 66.17 394.55 97.95 343.13 91.43 306.31 125.24 274.5 113.76 236.49 142.23 211.85 145.66 179.09 128.31 178.66 87.09 201.73 47.61 311.78 1 336.52 9.89 397.24 12.18 436.8 24.51 406.18 66.17 Z"/>
<path d="M 234.66 376.91 202.67 383.1 158.91 374.92 136.66 357.31 111.05 337.16 125.66 316.59 134.54 289 176.39 266.01 202.22 294.62 231.35 322.69 243.42 353.78 234.66 376.91 Z"/>
<path d="M 125.66 316.59 111.05 337.16 136.66 357.31 81.42 369.26 37.3 330.34 1.65 289.02 1 263.39 42.68 256.01 60.42 290.76 93.96 316.13 125.66 316.59 Z"/>
<path d="M 134.54 289 125.66 316.59 93.96 316.13 60.42 290.76 42.68 256.01 45.61 205.42 82.23 179.73 106.98 188.53 124.89 227.38 134.54 289 Z"/>
<path d="M 147.04 119.2 156.34 167.45 176.8 179.75 186.67 220.23 176.39 266.01 134.54 289 124.89 227.38 106.98 188.53 82.23 179.73 112.84 134.61 147.04 119.2 Z"/>
<path d="M 627.56 285.25 653.94 324.84 629.98 358.92 577.1 336.03 574.42 335.55 585.47 319.3 627.25 301.2 627.56 285.25 Z"/>
<path d="M 653.94 324.84 664.96 336.72 744.71 287.72 779.28 286.91 799 323.89 798.25 353.03 768.94 357.39 749.4 343.31 709.95 367.44 649.46 375.33 628.41 366.1 545.14 375.68 533.4 369.39 565.98 357.08 577.1 336.03 629.98 358.92 653.94 324.84 Z"/>
<path d="M 522.48 233.31 539.8 270.06 536.36 288.64 556.6 332.86 574.42 335.55 577.1 336.03 565.98 357.08 533.4 369.39 517.26 374.29 438.64 360.04 458.24 325.59 413.89 317.31 423.04 289.66 448.22 281.51 473.41 235.35 522.48 233.31 Z"/>
</g>
</svg>