<svg width="678" height="334" viewBox="0 0 678 334" fill="none" xmlns="http://www.w3.org/2000/svg">
<path d="M547.785 76.0352L547.803 76.041L547.823 76.0439L550.738 76.4434L550.754 76.4453L550.77 76.4463L558.095 76.501L566.115 79.4512L566.143 79.4619L566.173 79.4658L574.445 80.4004L578.843 81.4824L583.052 83.1865L586.256 85.3535L589.171 89.8516L588.409 93.6406L586.058 97.6201L586.045 97.6406L586.037 97.6631L584.267 102.6L584.254 102.635L584.253 102.672L584.044 107.269V107.284L584.045 107.3L585.166 121.416L583.931 129.959L574.541 141.639L574.501 141.688L574.491 141.752L573.158 149.431L573.148 149.488L573.164 149.545L577.559 164.251L577.57 164.287L577.59 164.318L579.486 167.172L579.511 167.21L579.548 167.236L585.226 171.308L586.97 174.603L586.988 174.636L587.014 174.662L590.18 177.83L590.227 177.877L590.29 177.895L594.893 179.157L594.906 179.161L594.918 179.163L599.867 179.976L604.115 181.648L604.09 181.765L603.618 182.842L602.559 184.002L601.079 184.62L595.636 185.346L595.609 185.35L595.583 185.359L588.614 187.912L576.801 191.248L574.579 191.398L574.484 191.404L574.416 191.474L569.804 196.243L568.976 196.898L564.102 198.602L564.035 198.625L563.99 198.682L563.438 199.37L544.912 193.694L544.889 193.688L544.865 193.685L537.43 192.927L540.485 187.686L540.502 187.654L540.511 187.62L540.949 185.871L540.965 185.807L540.947 185.742L540.728 184.966L540.723 184.946L540.714 184.928L538.183 179.524L538.169 179.494L538.148 179.469L524.114 162.845L520.5 157.042L520.494 157.03L520.485 157.02L518.08 153.96L520.015 149.828L520.043 149.77L520.038 149.704L519.164 137.578L520.096 132.729L520.102 132.701L520.1 132.672L520.038 131.151L520.037 131.119L520.028 131.089L518.63 126.515L518.481 125.168L518.865 123.806L519.694 122.348L519.703 122.333L519.708 122.317L520.646 119.988L520.658 119.959L520.661 119.928L521.099 116.604L521.102 116.587L521.101 116.568L521.07 114.377L521.966 110.961L521.974 110.934L521.975 110.905L522.537 94.2412L522.538 94.2285L522.537 94.2168L522.393 91.9023L522.644 90.8291L523.175 90.0156L523.945 89.7686L524.858 89.6572L524.881 89.6543L524.904 89.6475L525.809 89.3574L525.839 89.3477L525.866 89.3311L526.865 88.7012L526.891 88.6846L526.912 88.6611L533.348 81.8457L534.419 81.3057L535.267 81.3301L537.204 81.8428L537.248 81.8545L537.292 81.8496L538.291 81.752L538.332 81.748L538.37 81.7314L539.4 81.2676L539.429 81.2549L539.454 81.2344L542.453 78.832L542.47 78.8164L545.919 75.4688L547.785 76.0352Z" fill="#E5E5E5" stroke="#BCBCBC" stroke-width="0.5"/>
<mask id="path-2-inside-1_920_2818" fill="white">
<path d="M545.851 75.1876L542.298 78.6404L539.3 81.0434L538.269 81.507L537.27 81.605L535.303 81.0849L534.366 81.0585L533.199 81.6465L526.733 88.4937L525.734 89.1231L524.829 89.4134L523.892 89.5284L523.017 89.8092L522.413 90.7346L522.143 91.888L522.29 94.2364L521.727 110.901L520.822 114.354L520.853 116.576L520.416 119.899L519.479 122.228L518.635 123.713L518.229 125.151L518.386 126.569L519.791 131.165L519.853 132.686L518.916 137.568L519.791 149.726L517.791 153.997L520.29 157.178L518.261 157.685L517.417 157.804L516.419 158.307L515.815 159.249L516.045 162.57L515.764 164.167L510.881 167.71L508.852 169.662L507.258 173.038L508.414 175.507L509.914 177.211L510.237 178.138L509.883 181.741L507.258 187.765L491.007 195.515L486.375 189.037L485 188.276L481.148 187.609L477.65 187.454L473.36 188.726L462.179 197.413L451.83 195.515L448.707 189.923L448.768 188.971L449.081 187.646L450.018 186.694L450.955 185.598L454.079 179.474L450.955 175.773L448.675 174.297L447.602 173.044L447.175 171.941L447.362 171.087L447.893 170.036L448.018 168.809L447.549 164.033L445.736 160.463L445.798 159.732L446.11 158.379L447.923 153.166L449.349 148.951L449.015 144.29L448.235 139.722L447.642 137.694L446.924 136.241L441.291 131.401L440.354 130.866L439.449 130.664L436.263 130.321L434.92 129.72L434.483 129.071V124.36L432.504 116.542L431.818 115.255L430.601 114.799L428.59 113.662L427.726 113.319L426.321 113.055L425.477 112.535L424.322 111.444L422.76 109.435L419.823 106.781L416.969 105.58L416.47 100.396L413.472 94.1402L412.316 92.9661L411.285 92.5872L409.037 92.1556L407.777 91.7448L406.372 91.0644L404.031 89.2607L403.281 88.1996L403.062 87.2799L404.061 85.5479L404.311 84.1551L404.843 83.1411L405.748 82.2213L407.747 81.0717L408.31 80.2085L408.748 78.7158L408.54 73.9456L407.843 71.9591L407.656 70.342V68.2915L408.616 61.9343L415.35 63.4817L427.885 64.179L439.691 66.469L449.978 74.1058L452.914 76.6502L459.703 79.7335L468.385 80.5345L476.568 78.7459L481.983 74.1058L482.025 74.0738L484.879 70.2026L493.353 61.4651L497.142 58.8265L502.369 57.9614L507.511 58.6493L512.258 58.3685L516.381 54.6311L520.295 61.6856L526.708 66.8892L542.304 74.1058L545.851 75.1876Z"/>
</mask>
<path d="M545.851 75.1876L542.298 78.6404L539.3 81.0434L538.269 81.507L537.27 81.605L535.303 81.0849L534.366 81.0585L533.199 81.6465L526.733 88.4937L525.734 89.1231L524.829 89.4134L523.892 89.5284L523.017 89.8092L522.413 90.7346L522.143 91.888L522.29 94.2364L521.727 110.901L520.822 114.354L520.853 116.576L520.416 119.899L519.479 122.228L518.635 123.713L518.229 125.151L518.386 126.569L519.791 131.165L519.853 132.686L518.916 137.568L519.791 149.726L517.791 153.997L520.29 157.178L518.261 157.685L517.417 157.804L516.419 158.307L515.815 159.249L516.045 162.57L515.764 164.167L510.881 167.71L508.852 169.662L507.258 173.038L508.414 175.507L509.914 177.211L510.237 178.138L509.883 181.741L507.258 187.765L491.007 195.515L486.375 189.037L485 188.276L481.148 187.609L477.65 187.454L473.36 188.726L462.179 197.413L451.83 195.515L448.707 189.923L448.768 188.971L449.081 187.646L450.018 186.694L450.955 185.598L454.079 179.474L450.955 175.773L448.675 174.297L447.602 173.044L447.175 171.941L447.362 171.087L447.893 170.036L448.018 168.809L447.549 164.033L445.736 160.463L445.798 159.732L446.11 158.379L447.923 153.166L449.349 148.951L449.015 144.29L448.235 139.722L447.642 137.694L446.924 136.241L441.291 131.401L440.354 130.866L439.449 130.664L436.263 130.321L434.92 129.72L434.483 129.071V124.36L432.504 116.542L431.818 115.255L430.601 114.799L428.59 113.662L427.726 113.319L426.321 113.055L425.477 112.535L424.322 111.444L422.76 109.435L419.823 106.781L416.969 105.58L416.47 100.396L413.472 94.1402L412.316 92.9661L411.285 92.5872L409.037 92.1556L407.777 91.7448L406.372 91.0644L404.031 89.2607L403.281 88.1996L403.062 87.2799L404.061 85.5479L404.311 84.1551L404.843 83.1411L405.748 82.2213L407.747 81.0717L408.31 80.2085L408.748 78.7158L408.54 73.9456L407.843 71.9591L407.656 70.342V68.2915L408.616 61.9343L415.35 63.4817L427.885 64.179L439.691 66.469L449.978 74.1058L452.914 76.6502L459.703 79.7335L468.385 80.5345L476.568 78.7459L481.983 74.1058L482.025 74.0738L484.879 70.2026L493.353 61.4651L497.142 58.8265L502.369 57.9614L507.511 58.6493L512.258 58.3685L516.381 54.6311L520.295 61.6856L526.708 66.8892L542.304 74.1058L545.851 75.1876Z" fill="#E5E5E5" stroke="#BCBCBC" mask="url(#path-2-inside-1_920_2818)"/>
<mask id="path-3-inside-2_920_2818" fill="white">
<path d="M408.608 61.938L407.648 68.2951V70.3457L407.835 71.9628L408.531 73.9493L408.74 78.7195L408.302 80.2122L407.739 81.0754L405.739 82.225L404.834 83.1448L404.303 84.1587L404.052 85.5515L403.053 87.2836L403.272 88.2033L404.022 89.2644L406.364 91.0681L407.769 91.7485L409.029 92.1593L411.277 92.5909L412.307 92.9697L413.463 94.1439L416.462 100.399L416.961 105.584L419.815 106.785L422.751 109.438L424.313 111.447L425.469 112.539L426.313 113.059L427.717 113.323L428.582 113.666L430.592 114.802L431.81 115.258L432.496 116.546L434.474 124.363V129.075L434.912 129.723L436.255 130.325L439.44 130.668L440.345 130.869L441.283 131.405L446.916 136.245L447.634 137.698L448.227 139.726L449.007 144.294L449.34 148.955L447.914 153.169L446.102 158.382L445.789 159.736L445.728 160.467L447.54 164.036L448.01 168.812L447.885 170.039L447.353 171.091L447.166 171.945L447.593 173.047L448.667 174.301L450.947 175.776L454.07 179.478L450.947 185.601L450.009 186.698L449.072 187.65L448.76 188.975L448.698 189.927L451.822 195.519L447.729 196.698L447.073 197.04L444.136 199.703L443.512 201.699L442.948 202.226L441.656 202.882L440.127 203.487L435.535 203.657L432.932 205.425L430.59 205.777L424.313 208.289L417.921 205.611L415.527 203.301L415.089 202.426L414.59 201.744L412.873 200.472L411.185 198.873L410.342 198.268L409.154 197.989L408.174 197.897L407.05 197.933L405.769 198.099L404.394 198.736L403.302 199.418L402.333 203.721L391.296 192.989L387.225 190.377L385.695 189.719L383.041 188.964L381.167 188.249L380.136 187.556L379.231 186.355L378.607 185.833L377.795 185.492L375.734 185.104L370.789 183.526L369.166 179.478L370.258 176.983L369.382 171.894L364.657 157.602L363.033 156.716L362.304 154.198L361.503 148.704L361.004 148.13L360.067 147.413L359.808 146.558L359.786 145.059L360.131 142.67L360.192 141.077L360.379 139.92L361.879 135.579L362.411 130.313L362.379 127.927L362.119 126.19L361.692 125.24L361.225 124.471L358.883 121.384L358.32 120.824L357.383 120.315L356.291 119.966L355.167 119.904L354.251 120.044L353.565 120.215L352.94 120.162L352.358 119.768L351.786 119.218L350.131 118.055L348.631 110.064L348.818 109.239L349.317 108.247L350.003 108.309L351.066 107.712L352.294 106.195L354.542 102.35L355.634 96.5149L355.415 94.5812L355.165 93.4127L354.727 92.6117L354.164 91.9049L353.686 91.1152L353.312 89.6338L352.978 88.7197L352.436 87.9244L351.854 87.5606L351.187 87.3213L348.771 86.8011L348.282 86.4732L347.815 85.7457L347.222 84.4414L346.659 82.8922L346.127 81.9555L345.503 81.2487L345.316 80.8115L345.377 80.3535L345.658 79.9539L346.125 79.4696L346.688 78.71L347.252 77.6961L347.815 75.8754L347.783 74.4657L347.315 73.0559L342.902 67.9729L346.074 63.2272L352.188 58.4796L355.685 58.0631L359.204 58.1253L372.342 59.7913L376.798 58.8339L381.732 58.3552L387.603 55.5281L390.914 54.8572L394.225 55.5131L402.888 60.6244L408.608 61.938Z"/>
</mask>
<path d="M408.608 61.938L407.648 68.2951V70.3457L407.835 71.9628L408.531 73.9493L408.74 78.7195L408.302 80.2122L407.739 81.0754L405.739 82.225L404.834 83.1448L404.303 84.1587L404.052 85.5515L403.053 87.2836L403.272 88.2033L404.022 89.2644L406.364 91.0681L407.769 91.7485L409.029 92.1593L411.277 92.5909L412.307 92.9697L413.463 94.1439L416.462 100.399L416.961 105.584L419.815 106.785L422.751 109.438L424.313 111.447L425.469 112.539L426.313 113.059L427.717 113.323L428.582 113.666L430.592 114.802L431.81 115.258L432.496 116.546L434.474 124.363V129.075L434.912 129.723L436.255 130.325L439.44 130.668L440.345 130.869L441.283 131.405L446.916 136.245L447.634 137.698L448.227 139.726L449.007 144.294L449.34 148.955L447.914 153.169L446.102 158.382L445.789 159.736L445.728 160.467L447.54 164.036L448.01 168.812L447.885 170.039L447.353 171.091L447.166 171.945L447.593 173.047L448.667 174.301L450.947 175.776L454.07 179.478L450.947 185.601L450.009 186.698L449.072 187.65L448.76 188.975L448.698 189.927L451.822 195.519L447.729 196.698L447.073 197.04L444.136 199.703L443.512 201.699L442.948 202.226L441.656 202.882L440.127 203.487L435.535 203.657L432.932 205.425L430.59 205.777L424.313 208.289L417.921 205.611L415.527 203.301L415.089 202.426L414.59 201.744L412.873 200.472L411.185 198.873L410.342 198.268L409.154 197.989L408.174 197.897L407.05 197.933L405.769 198.099L404.394 198.736L403.302 199.418L402.333 203.721L391.296 192.989L387.225 190.377L385.695 189.719L383.041 188.964L381.167 188.249L380.136 187.556L379.231 186.355L378.607 185.833L377.795 185.492L375.734 185.104L370.789 183.526L369.166 179.478L370.258 176.983L369.382 171.894L364.657 157.602L363.033 156.716L362.304 154.198L361.503 148.704L361.004 148.13L360.067 147.413L359.808 146.558L359.786 145.059L360.131 142.67L360.192 141.077L360.379 139.92L361.879 135.579L362.411 130.313L362.379 127.927L362.119 126.19L361.692 125.24L361.225 124.471L358.883 121.384L358.32 120.824L357.383 120.315L356.291 119.966L355.167 119.904L354.251 120.044L353.565 120.215L352.94 120.162L352.358 119.768L351.786 119.218L350.131 118.055L348.631 110.064L348.818 109.239L349.317 108.247L350.003 108.309L351.066 107.712L352.294 106.195L354.542 102.35L355.634 96.5149L355.415 94.5812L355.165 93.4127L354.727 92.6117L354.164 91.9049L353.686 91.1152L353.312 89.6338L352.978 88.7197L352.436 87.9244L351.854 87.5606L351.187 87.3213L348.771 86.8011L348.282 86.4732L347.815 85.7457L347.222 84.4414L346.659 82.8922L346.127 81.9555L345.503 81.2487L345.316 80.8115L345.377 80.3535L345.658 79.9539L346.125 79.4696L346.688 78.71L347.252 77.6961L347.815 75.8754L347.783 74.4657L347.315 73.0559L342.902 67.9729L346.074 63.2272L352.188 58.4796L355.685 58.0631L359.204 58.1253L372.342 59.7913L376.798 58.8339L381.732 58.3552L387.603 55.5281L390.914 54.8572L394.225 55.5131L402.888 60.6244L408.608 61.938Z" fill="#E5E5E5" stroke="#BCBCBC" mask="url(#path-3-inside-2_920_2818)"/>
<mask id="path-4-inside-3_920_2818" fill="white">
<path d="M604.398 181.506L607.741 185.669L607.97 188.752L609.033 190.273L614.989 189.736L630.647 184.883L636.083 184.065L643.454 184.469L646.036 183.671L651.992 179.706L654.365 179.001L658.842 183.764L676.479 212.675L677.269 215.052L675.873 218.493L669.586 223.237L666.796 226.222L666.067 228.03L665.421 231.82L664.839 233.544L663.715 235.145L661.09 237.612L660.551 238.284L660.508 238.279L660.009 238.202L654.346 237.958L652.504 237.679L650.683 237.225L649.07 236.409L648.122 235.655L647.623 234.803L647.31 233.936L646.165 231.912L645.666 230.749L644.646 227.538L644.219 226.603L643.532 225.849L642.563 225.276L641.565 225.442L640.628 226.202L639.565 228.51L639.128 231.558L639.533 235.271L639.149 241.673L638.972 242.406L638.503 242.763L635.587 242.597L630.403 243.366L621.053 246.076L616.899 249.333L612.39 256.53L585.07 265.04L575.971 263.272L559.814 271.47H559.688L556.834 269.944L558.001 261.632L557.71 261.389L550.464 261.338L547.746 260.132L546.871 259.467L542.581 256.924L541.924 256.425L541.081 255.584L539.174 252.54L537.706 250.682L537.674 249.759L538.019 248.33L540.048 246.091L542.797 241.864L534.374 240.934L534.927 238.503L535.458 228.299L536.905 224.896L544.776 218.137L552.833 214.479L552.355 212.002L552.302 211.263L552.147 210.57L551.741 209.609L550.492 207.654L550.398 206.848L549.96 205.999L548.962 205.261L543.579 202.55L540.736 200.157L535.957 197.447L537.987 195.611L537.018 193.144L544.837 193.941L563.526 199.667L564.182 198.845L569.097 197.128L569.973 196.435L574.594 191.655L576.843 191.504L588.691 188.157L595.667 185.601L601.143 184.872L602.705 184.22L603.829 182.987L604.328 181.849L604.398 181.506Z"/>
</mask>
<path d="M604.398 181.506L607.741 185.669L607.97 188.752L609.033 190.273L614.989 189.736L630.647 184.883L636.083 184.065L643.454 184.469L646.036 183.671L651.992 179.706L654.365 179.001L658.842 183.764L676.479 212.675L677.269 215.052L675.873 218.493L669.586 223.237L666.796 226.222L666.067 228.03L665.421 231.82L664.839 233.544L663.715 235.145L661.09 237.612L660.551 238.284L660.508 238.279L660.009 238.202L654.346 237.958L652.504 237.679L650.683 237.225L649.07 236.409L648.122 235.655L647.623 234.803L647.31 233.936L646.165 231.912L645.666 230.749L644.646 227.538L644.219 226.603L643.532 225.849L642.563 225.276L641.565 225.442L640.628 226.202L639.565 228.51L639.128 231.558L639.533 235.271L639.149 241.673L638.972 242.406L638.503 242.763L635.587 242.597L630.403 243.366L621.053 246.076L616.899 249.333L612.39 256.53L585.07 265.04L575.971 263.272L559.814 271.47H559.688L556.834 269.944L558.001 261.632L557.71 261.389L550.464 261.338L547.746 260.132L546.871 259.467L542.581 256.924L541.924 256.425L541.081 255.584L539.174 252.54L537.706 250.682L537.674 249.759L538.019 248.33L540.048 246.091L542.797 241.864L534.374 240.934L534.927 238.503L535.458 228.299L536.905 224.896L544.776 218.137L552.833 214.479L552.355 212.002L552.302 211.263L552.147 210.57L551.741 209.609L550.492 207.654L550.398 206.848L549.96 205.999L548.962 205.261L543.579 202.55L540.736 200.157L535.957 197.447L537.987 195.611L537.018 193.144L544.837 193.941L563.526 199.667L564.182 198.845L569.097 197.128L569.973 196.435L574.594 191.655L576.843 191.504L588.691 188.157L595.667 185.601L601.143 184.872L602.705 184.22L603.829 182.987L604.328 181.849L604.398 181.506Z" fill="#E5E5E5" stroke="#BCBCBC" mask="url(#path-4-inside-3_920_2818)"/>
<mask id="path-5-inside-4_920_2818" fill="white">
<path d="M675.574 289.089L674.039 295.827L666.607 302.385L654.363 304.023L650.802 302.5L644.41 297.64L640.891 296.343L637.85 297.104L638.328 299.709V302.653L633.998 304.485L636.393 307.161L636.601 310.435L634.935 312.71L631.79 312.359L629.646 309.621L629.064 306.388L627.94 303.475L624.151 301.663L618.133 302.651L605.307 310.082L599.373 312.614L589.628 313.714L586.443 313.509L577.531 311.162L573.887 311.287L566.577 313.541L562.807 313.788L560.143 311.709L555.521 302.806L553.626 300.252L550.71 299.49L542.57 299.059L539.78 299.46L536.178 301.663L534.096 304.783L532.472 308.396L530.12 312.08L527.538 314.364L524.415 316.196L521.021 317.555L517.668 318.368L513.525 318.471L510.692 317.484L504.757 314.274L497.845 312.844L483.519 313.132L476.439 312.361L470.421 312.403L460.491 316.428L460.468 316.374L458.022 310.61L457.99 309.771L458.146 309.019L458.738 307.666L459.051 306.524L460.049 305.052L461.486 304.038L462.693 303.441L471.49 301.726L474.021 300.295L474.458 300.269L475.291 300.51L475.865 300.602L477.667 296.946L487.182 296.56L490.669 295.278L492.794 292.229L495.032 284.982L497.781 285.193L503.414 285.704L511.296 284.844L513.202 285.133L514.358 285.659L515.607 287.555L517.043 288.651L518.979 289.795L523.582 290.135L526.019 294.918L525.957 295.794L525.77 296.793L525.084 297.617L523.357 303.486L528.958 305.386L531.529 304.543L533.599 300.789L535.324 299.083L536.877 297.547L539.055 295.685L541.741 293.048L544.657 288.732L545.302 287.151L545.241 285.971L544.555 283.24L544.784 281.113L545.118 279.799L548.658 273.79L549.157 272.064L556.841 269.94L559.694 271.467H559.82L575.978 263.268L585.076 265.036L612.396 256.527L616.905 249.329L621.059 246.072L630.409 243.362L635.594 242.593L638.509 242.759L638.979 242.403L639.155 241.669L639.54 235.267L639.134 231.554L639.571 228.507L640.634 226.198L641.571 225.438L642.57 225.272L643.539 225.845L644.225 226.599L644.652 227.534L645.672 230.746L646.171 231.909L647.317 233.933L647.629 234.8L648.128 235.652L649.076 236.405L650.689 237.222L652.51 237.676L654.352 237.955L660.015 238.198L660.514 238.275L660.557 238.281L659.994 238.982L658.557 241.894L657.537 245.341L656.955 249.035L656.913 252.678L659.369 259.167L669.405 268.087L672.881 274.448V274.469L676.296 285.939L675.574 289.089Z"/>
</mask>
<path d="M675.574 289.089L674.039 295.827L666.607 302.385L654.363 304.023L650.802 302.5L644.41 297.64L640.891 296.343L637.85 297.104L638.328 299.709V302.653L633.998 304.485L636.393 307.161L636.601 310.435L634.935 312.71L631.79 312.359L629.646 309.621L629.064 306.388L627.94 303.475L624.151 301.663L618.133 302.651L605.307 310.082L599.373 312.614L589.628 313.714L586.443 313.509L577.531 311.162L573.887 311.287L566.577 313.541L562.807 313.788L560.143 311.709L555.521 302.806L553.626 300.252L550.71 299.49L542.57 299.059L539.78 299.46L536.178 301.663L534.096 304.783L532.472 308.396L530.12 312.08L527.538 314.364L524.415 316.196L521.021 317.555L517.668 318.368L513.525 318.471L510.692 317.484L504.757 314.274L497.845 312.844L483.519 313.132L476.439 312.361L470.421 312.403L460.491 316.428L460.468 316.374L458.022 310.61L457.99 309.771L458.146 309.019L458.738 307.666L459.051 306.524L460.049 305.052L461.486 304.038L462.693 303.441L471.49 301.726L474.021 300.295L474.458 300.269L475.291 300.51L475.865 300.602L477.667 296.946L487.182 296.56L490.669 295.278L492.794 292.229L495.032 284.982L497.781 285.193L503.414 285.704L511.296 284.844L513.202 285.133L514.358 285.659L515.607 287.555L517.043 288.651L518.979 289.795L523.582 290.135L526.019 294.918L525.957 295.794L525.77 296.793L525.084 297.617L523.357 303.486L528.958 305.386L531.529 304.543L533.599 300.789L535.324 299.083L536.877 297.547L539.055 295.685L541.741 293.048L544.657 288.732L545.302 287.151L545.241 285.971L544.555 283.24L544.784 281.113L545.118 279.799L548.658 273.79L549.157 272.064L556.841 269.94L559.694 271.467H559.82L575.978 263.268L585.076 265.036L612.396 256.527L616.905 249.329L621.059 246.072L630.409 243.362L635.594 242.593L638.509 242.759L638.979 242.403L639.155 241.669L639.54 235.267L639.134 231.554L639.571 228.507L640.634 226.198L641.571 225.438L642.57 225.272L643.539 225.845L644.225 226.599L644.652 227.534L645.672 230.746L646.171 231.909L647.317 233.933L647.629 234.8L648.128 235.652L649.076 236.405L650.689 237.222L652.51 237.676L654.352 237.955L660.015 238.198L660.514 238.275L660.557 238.281L659.994 238.982L658.557 241.894L657.537 245.341L656.955 249.035L656.913 252.678L659.369 259.167L669.405 268.087L672.881 274.448V274.469L676.296 285.939L675.574 289.089Z" fill="#E5E5E5" stroke="#BCBCBC" mask="url(#path-5-inside-4_920_2818)"/>
<mask id="path-6-inside-5_920_2818" fill="white">
<path d="M30.0171 217.425L31.7319 216.252L33.2831 210.412L37.8835 207.345L45.0656 207.873L49.3218 211.043L54.3748 207.345L51.1832 202.59L47.726 194.927L45.1166 186.873L46.4234 182.107L48.1658 177.882L51.5444 174.956L50.9558 173.884L49.9805 172.109L49.5258 169.939L50.6158 167.408L53.5227 165.963L55.9748 163.522L55.5201 161.353L58.2442 158.279L61.6951 157.645L62.9658 154.571L65.2373 151.769L67.8721 150.231L73.4139 148.241L75.594 148.693L76.1422 149.223L80.1094 153.047L86.397 157.762L88.9278 158.695L89.833 158.876L90.957 159.342L93.4665 160.968L94.0488 161.223L94.7776 161.253L95.5277 161.066L96.4329 160.693L97.5251 160.832L98.5238 162.154L102.179 172.073L102.771 174.512L104.584 177.857L107.03 179.602L108.466 180.963L109.777 181.796L110.464 184.959L112.775 187.857L118.158 196.135L121.281 199.942L129.694 210.687L127.945 212.888L125.467 214.822L124.176 215.395L121.22 216.403L120.002 217.08L118.846 218.237L118.035 219.581L117.597 221.307L119.314 224.743L119.658 226.856L121.439 231.385L123.094 235.459L123.969 236.534L125.374 237.834L125.801 238.841L125.593 240.265L123.802 242.444L121.564 246.031L121.313 249.679L112.057 248.094L107.716 249.817L105.831 253.351L105.332 254.93L102.708 258.556L102.521 258.726L93.3582 248.249L86.6116 253.662L83.5815 253.445L82.9887 252.655L82.5106 250.957L82.1366 250.215L81.7414 249.58L81.3674 248.867L80.8255 248.326L80.4813 247.759L80.2305 247.129L79.9798 245.963L79.2 244.595L64.6657 243.294L60.792 241.766L60.5009 241.064L60.4796 240.358L60.2289 239.577L59.8124 238.793L58.8753 237.419L58.4376 236.5L58.1677 235.612L58.0317 234.915L57.9999 234.428V234.046L57.968 233.627L57.8426 233.09L57.4984 232.295L57.0925 231.458L56.999 230.508L56.1448 228.582L55.5307 228.277L54.8444 228.354L53.6268 229.051L53.1275 229.526L51.9715 230.333L49.7234 230.57L44.902 225.766L42.3415 221.473L41.3725 220.791L39.8724 220.026L32.7093 218.31L30.0171 217.425Z"/>
</mask>
<path d="M30.0171 217.425L31.7319 216.252L33.2831 210.412L37.8835 207.345L45.0656 207.873L49.3218 211.043L54.3748 207.345L51.1832 202.59L47.726 194.927L45.1166 186.873L46.4234 182.107L48.1658 177.882L51.5444 174.956L50.9558 173.884L49.9805 172.109L49.5258 169.939L50.6158 167.408L53.5227 165.963L55.9748 163.522L55.5201 161.353L58.2442 158.279L61.6951 157.645L62.9658 154.571L65.2373 151.769L67.8721 150.231L73.4139 148.241L75.594 148.693L76.1422 149.223L80.1094 153.047L86.397 157.762L88.9278 158.695L89.833 158.876L90.957 159.342L93.4665 160.968L94.0488 161.223L94.7776 161.253L95.5277 161.066L96.4329 160.693L97.5251 160.832L98.5238 162.154L102.179 172.073L102.771 174.512L104.584 177.857L107.03 179.602L108.466 180.963L109.777 181.796L110.464 184.959L112.775 187.857L118.158 196.135L121.281 199.942L129.694 210.687L127.945 212.888L125.467 214.822L124.176 215.395L121.22 216.403L120.002 217.08L118.846 218.237L118.035 219.581L117.597 221.307L119.314 224.743L119.658 226.856L121.439 231.385L123.094 235.459L123.969 236.534L125.374 237.834L125.801 238.841L125.593 240.265L123.802 242.444L121.564 246.031L121.313 249.679L112.057 248.094L107.716 249.817L105.831 253.351L105.332 254.93L102.708 258.556L102.521 258.726L93.3582 248.249L86.6116 253.662L83.5815 253.445L82.9887 252.655L82.5106 250.957L82.1366 250.215L81.7414 249.58L81.3674 248.867L80.8255 248.326L80.4813 247.759L80.2305 247.129L79.9798 245.963L79.2 244.595L64.6657 243.294L60.792 241.766L60.5009 241.064L60.4796 240.358L60.2289 239.577L59.8124 238.793L58.8753 237.419L58.4376 236.5L58.1677 235.612L58.0317 234.915L57.9999 234.428V234.046L57.968 233.627L57.8426 233.09L57.4984 232.295L57.0925 231.458L56.999 230.508L56.1448 228.582L55.5307 228.277L54.8444 228.354L53.6268 229.051L53.1275 229.526L51.9715 230.333L49.7234 230.57L44.902 225.766L42.3415 221.473L41.3725 220.791L39.8724 220.026L32.7093 218.31L30.0171 217.425Z" fill="#E5E5E5" stroke="#BCBCBC" mask="url(#path-6-inside-5_920_2818)"/>
<mask id="path-7-inside-6_920_2818" fill="white">
<path d="M1.19915 243.711L0.591431 243.315L2.2786 237.553L5.48507 230.996L9.81561 225.346L14.9175 222.236L27.057 219.447L30.017 217.425L32.722 218.314L39.885 220.029L41.3852 220.794L42.3542 221.477L44.9147 225.77L49.7361 230.574L51.9842 230.337L53.1401 229.53L53.6395 229.055L54.8571 228.358L55.5434 228.28L56.1575 228.586L57.0117 230.512L57.1052 231.462L57.5111 232.299L57.8553 233.094L57.9807 233.631L58.0125 234.05V234.432L58.0444 234.918L58.1804 235.616L58.4503 236.503L58.888 237.423L59.8251 238.797L60.2416 239.581L60.4923 240.361L60.5135 241.068L60.8046 241.769L64.6783 243.298L79.2126 244.598L79.9925 245.967L80.2432 247.133L80.4939 247.763L80.8382 248.33L81.38 248.871L81.754 249.583L82.1492 250.218L82.5232 250.961L83.0013 252.659L83.5942 253.449L86.6243 253.666L93.3708 248.253L102.533 258.73L102.72 258.56L105.345 254.934L105.844 253.355L107.729 249.821L112.07 248.098L121.326 249.683L118.421 251.206L117.423 252.729L116.755 255.057L117.423 258.967L117.516 264.062L119.89 264.459L121.014 264.923L122.065 265.733L123.045 266.708L123.92 268.202L124.379 269.218L123.578 273.544L115.759 283.016L108.825 287.308L109.637 289.085L110.168 289.498L111.167 289.56L111.73 289.266L112.51 289.162L113.666 289.466L117.82 291.46L119.329 292.506L120.298 295.57L120.89 296.75V297.642L120.671 298.361L120.858 298.846L121.638 299.048L125.897 298.182L127.52 298.224L128.54 298.441L129.237 301.56L129.299 305.842V305.881L123.812 302.5L115.453 304.477L112.673 304.364L110.102 304.581L107.958 306.083L105.876 307.987L103.502 309.387L97.8586 310.725L92.1745 311.219L80.7851 310.642L74.4231 309.057L71.5906 306.143L69.9566 302.088L67.2091 297.093L64.0239 293.972L59.3278 290.872L54.2982 288.863L50.008 289.068L48.0914 290.314L45.822 290.881L43.4485 290.664L41.3448 289.562L39.9296 287.543L39.9509 285.617L40.2633 283.546L39.7639 281.103L36.1728 277.228L32.1015 277.65L28.2087 280.587L25.1064 284.337L23.8782 274.484V274.463V263.564L22.9092 258.438L20.2552 253.918L15.7462 250.895L3.11793 244.96L1.19915 243.711Z"/>
</mask>
<path d="M1.19915 243.711L0.591431 243.315L2.2786 237.553L5.48507 230.996L9.81561 225.346L14.9175 222.236L27.057 219.447L30.017 217.425L32.722 218.314L39.885 220.029L41.3852 220.794L42.3542 221.477L44.9147 225.77L49.7361 230.574L51.9842 230.337L53.1401 229.53L53.6395 229.055L54.8571 228.358L55.5434 228.28L56.1575 228.586L57.0117 230.512L57.1052 231.462L57.5111 232.299L57.8553 233.094L57.9807 233.631L58.0125 234.05V234.432L58.0444 234.918L58.1804 235.616L58.4503 236.503L58.888 237.423L59.8251 238.797L60.2416 239.581L60.4923 240.361L60.5135 241.068L60.8046 241.769L64.6783 243.298L79.2126 244.598L79.9925 245.967L80.2432 247.133L80.4939 247.763L80.8382 248.33L81.38 248.871L81.754 249.583L82.1492 250.218L82.5232 250.961L83.0013 252.659L83.5942 253.449L86.6243 253.666L93.3708 248.253L102.533 258.73L102.72 258.56L105.345 254.934L105.844 253.355L107.729 249.821L112.07 248.098L121.326 249.683L118.421 251.206L117.423 252.729L116.755 255.057L117.423 258.967L117.516 264.062L119.89 264.459L121.014 264.923L122.065 265.733L123.045 266.708L123.92 268.202L124.379 269.218L123.578 273.544L115.759 283.016L108.825 287.308L109.637 289.085L110.168 289.498L111.167 289.56L111.73 289.266L112.51 289.162L113.666 289.466L117.82 291.46L119.329 292.506L120.298 295.57L120.89 296.75V297.642L120.671 298.361L120.858 298.846L121.638 299.048L125.897 298.182L127.52 298.224L128.54 298.441L129.237 301.56L129.299 305.842V305.881L123.812 302.5L115.453 304.477L112.673 304.364L110.102 304.581L107.958 306.083L105.876 307.987L103.502 309.387L97.8586 310.725L92.1745 311.219L80.7851 310.642L74.4231 309.057L71.5906 306.143L69.9566 302.088L67.2091 297.093L64.0239 293.972L59.3278 290.872L54.2982 288.863L50.008 289.068L48.0914 290.314L45.822 290.881L43.4485 290.664L41.3448 289.562L39.9296 287.543L39.9509 285.617L40.2633 283.546L39.7639 281.103L36.1728 277.228L32.1015 277.65L28.2087 280.587L25.1064 284.337L23.8782 274.484V274.463V263.564L22.9092 258.438L20.2552 253.918L15.7462 250.895L3.11793 244.96L1.19915 243.711Z" fill="#E5E5E5" stroke="#BCBCBC" mask="url(#path-7-inside-6_920_2818)"/>
<mask id="path-8-inside-7_920_2818" fill="white">
<path d="M227.977 328.826L226.379 328.603L225.618 328.274L224.014 326.998L223.191 326.935L222.14 327.718L221.723 328.747L221.64 329.651L221.536 330.094L221.547 330.526L221.234 331.687L220.599 333.014L219.63 333.969L218.901 333.979L216.965 333.259L216.164 333.115L208.147 333.178L207.015 333.017L207.023 332.968L207.138 332.228L207.159 330.124L206.785 329.431L205.597 328.294L204.067 326.283L203.224 322.113L205.285 317.278L207.076 316.183L208.481 313.292L212.104 312.427L213.073 312.284L214.509 312.289L215.321 312.376L217.945 313.473L218.319 312.301L218.61 311.771L218.922 311L218.984 310.162L218.797 308.546L219.39 308.145L220.578 308.103L223.232 309.117L224.564 310.116L226.636 312.056L228.04 312.632L229.915 312.582L235.11 310.842L236.298 310.244L237.39 307.728L237.724 308.799L237.828 309.287L238.015 309.852L238.389 310.275L238.952 310.608L239.681 310.501L240.388 309.9L241.2 308.315L241.742 306.647L241.929 305.184L241.897 303.373L242.396 302.924L243.24 303.017L244.957 304.195L245.613 305.569L246.072 307.067L246.208 308.411L246.676 309.28L247.645 309.851L248.758 310.056L249.612 309.932L249.799 309.2L249.362 309.144L248.892 308.855L248.425 308.526L249.175 307.553L249.925 306.756L257.338 302.319L259.213 304.261L259.557 306.586L261.816 309.462L263.086 310.25L265.783 310.672L270.343 311.502L271.937 310.806L273.061 309.869L273.998 308.671L276.569 307.076L278.63 306.387L282.253 305.727L283.564 305.258L284.282 304.502L284.261 303.071L284.199 302.551L284.095 302.099L283.876 301.611L283.815 300.987L284.002 300.22L291.165 290.611L294.32 288.778L295.735 286.563L295.882 284.539L297.569 281.823L300.984 278.676L304.169 274.109L303.763 267.3L306.897 264.469L308.855 259.58L309.292 257.65L309.709 253.673L310.333 252.441L313.177 249.783L314.738 248.596L317.955 246.615L320.329 245.505L323.244 243.786L319.456 239.413L319.517 236.306L321.402 234.189L324.275 231.654L336.967 238.026L343.505 242.723L346.036 244.112L347.598 245.718L348.775 246.383L349.723 246.769L350.598 246.977L351.442 247.084L352.317 247.001L353.484 246.992L354.629 247.161L357.606 248.038L360.572 248.362L361.76 251.525L365.394 254.759L368.736 257.075L373.889 259.587L376.826 260.639L377.95 260.918H379.012L380.053 260.577L381.709 259.787L383.426 259.169L388.151 261.387L389.964 263.295L390.901 264.542L391.152 266.661L391.611 268.393L392.839 269.646L393.245 270.707L393.277 272.805L393.464 273.975L394.027 275.568L394.214 276.489L393.808 278.035L392.59 279.699L393.527 282.837L395.402 283.702L401.441 284.547L402.46 285.118L403.814 286.199L405.469 288.538L406.78 289.861L407.656 290.299L408.812 290.53L409.666 291.071L410.728 292.215L412.634 293.271L414.103 295.629L414.572 296.901L416.665 300.489L417.103 301.518L417.936 305.682L419.228 308.307L420.352 309.383L421.476 309.888L424.859 309.172L432.303 309.815L434.177 310.226L435.207 310.339L442.61 309.854L443.297 309.653L444.047 309.266L447.462 307.841L449.429 315.761L448.93 316.162L448.377 316.44L447.149 316.794L446.775 317.448L446.741 317.506L400.924 319.86L374.875 317.267L352.2 306.843L333.544 295.012L326.736 294.044L322.654 295.238L319.759 297.287L317.074 299.696L313.763 301.929L310.047 303.02L302.624 302.762L298.948 303.039L292.202 306.91L287.121 318.92L282.083 322.972L274.421 324.896L251.474 326.86L238.752 329.874L234.379 330.243L232.339 329.966L228.238 328.845L227.977 328.826Z"/>
</mask>
<path d="M227.977 328.826L226.379 328.603L225.618 328.274L224.014 326.998L223.191 326.935L222.14 327.718L221.723 328.747L221.64 329.651L221.536 330.094L221.547 330.526L221.234 331.687L220.599 333.014L219.63 333.969L218.901 333.979L216.965 333.259L216.164 333.115L208.147 333.178L207.015 333.017L207.023 332.968L207.138 332.228L207.159 330.124L206.785 329.431L205.597 328.294L204.067 326.283L203.224 322.113L205.285 317.278L207.076 316.183L208.481 313.292L212.104 312.427L213.073 312.284L214.509 312.289L215.321 312.376L217.945 313.473L218.319 312.301L218.61 311.771L218.922 311L218.984 310.162L218.797 308.546L219.39 308.145L220.578 308.103L223.232 309.117L224.564 310.116L226.636 312.056L228.04 312.632L229.915 312.582L235.11 310.842L236.298 310.244L237.39 307.728L237.724 308.799L237.828 309.287L238.015 309.852L238.389 310.275L238.952 310.608L239.681 310.501L240.388 309.9L241.2 308.315L241.742 306.647L241.929 305.184L241.897 303.373L242.396 302.924L243.24 303.017L244.957 304.195L245.613 305.569L246.072 307.067L246.208 308.411L246.676 309.28L247.645 309.851L248.758 310.056L249.612 309.932L249.799 309.2L249.362 309.144L248.892 308.855L248.425 308.526L249.175 307.553L249.925 306.756L257.338 302.319L259.213 304.261L259.557 306.586L261.816 309.462L263.086 310.25L265.783 310.672L270.343 311.502L271.937 310.806L273.061 309.869L273.998 308.671L276.569 307.076L278.63 306.387L282.253 305.727L283.564 305.258L284.282 304.502L284.261 303.071L284.199 302.551L284.095 302.099L283.876 301.611L283.815 300.987L284.002 300.22L291.165 290.611L294.32 288.778L295.735 286.563L295.882 284.539L297.569 281.823L300.984 278.676L304.169 274.109L303.763 267.3L306.897 264.469L308.855 259.58L309.292 257.65L309.709 253.673L310.333 252.441L313.177 249.783L314.738 248.596L317.955 246.615L320.329 245.505L323.244 243.786L319.456 239.413L319.517 236.306L321.402 234.189L324.275 231.654L336.967 238.026L343.505 242.723L346.036 244.112L347.598 245.718L348.775 246.383L349.723 246.769L350.598 246.977L351.442 247.084L352.317 247.001L353.484 246.992L354.629 247.161L357.606 248.038L360.572 248.362L361.76 251.525L365.394 254.759L368.736 257.075L373.889 259.587L376.826 260.639L377.95 260.918H379.012L380.053 260.577L381.709 259.787L383.426 259.169L388.151 261.387L389.964 263.295L390.901 264.542L391.152 266.661L391.611 268.393L392.839 269.646L393.245 270.707L393.277 272.805L393.464 273.975L394.027 275.568L394.214 276.489L393.808 278.035L392.59 279.699L393.527 282.837L395.402 283.702L401.441 284.547L402.46 285.118L403.814 286.199L405.469 288.538L406.78 289.861L407.656 290.299L408.812 290.53L409.666 291.071L410.728 292.215L412.634 293.271L414.103 295.629L414.572 296.901L416.665 300.489L417.103 301.518L417.936 305.682L419.228 308.307L420.352 309.383L421.476 309.888L424.859 309.172L432.303 309.815L434.177 310.226L435.207 310.339L442.61 309.854L443.297 309.653L444.047 309.266L447.462 307.841L449.429 315.761L448.93 316.162L448.377 316.44L447.149 316.794L446.775 317.448L446.741 317.506L400.924 319.86L374.875 317.267L352.2 306.843L333.544 295.012L326.736 294.044L322.654 295.238L319.759 297.287L317.074 299.696L313.763 301.929L310.047 303.02L302.624 302.762L298.948 303.039L292.202 306.91L287.121 318.92L282.083 322.972L274.421 324.896L251.474 326.86L238.752 329.874L234.379 330.243L232.339 329.966L228.238 328.845L227.977 328.826Z" fill="#E5E5E5" stroke="#BCBCBC" mask="url(#path-8-inside-7_920_2818)"/>
<mask id="path-9-inside-8_920_2818" fill="white">
<path d="M129.297 305.87V305.831L129.235 301.549L128.538 298.429L127.518 298.213L125.895 298.171L121.636 299.036L120.856 298.835L120.669 298.35L120.888 297.63V296.739L120.295 295.559L119.327 292.494L117.818 291.448L113.664 289.454L112.508 289.151L111.728 289.255L111.165 289.549L110.166 289.486L109.635 289.074L108.823 287.296L115.757 283.005L123.576 273.532L124.377 269.207L123.918 268.191L123.043 266.697L122.063 265.722L121.012 264.912L119.888 264.448L117.514 264.05L117.421 258.956L116.753 255.045L117.421 252.718L118.419 251.195L121.324 249.672L121.575 246.023L123.812 242.437L125.604 240.258L125.812 238.833L125.385 237.827L123.98 236.526L123.105 235.452L121.449 231.377L135.546 231.656L141.209 232.617L143.833 233.578L147.237 235.261L148.924 235.686L155.089 236.47L157.024 235.731L157.211 235.152L157.337 234.47L157.182 233.882L156.869 233.205L156.682 232.446L156.495 231.021L156.621 229.276L159.464 221.611L160.839 219.038L161.525 217.044L162.067 212.119L165.439 214.362L166.72 216.595L167.5 218.746L168.157 221.52L168.875 222.327L169.687 222.596L171.102 222.168L177.411 223.735L178.441 224.364L178.879 226.002L167.5 233.011L163.378 237.896L163.535 239.491L168.813 242.067L171 243.554L175.976 245.793L180.598 245.282L183.596 249.193L187.449 259.177L192.196 260.579L193.32 262.637L193.039 263.766L192.572 264.657L192.072 267.322L204.701 267.39L208.74 274.478L209.739 277.019L212.299 285.866L208.895 292.093L208.738 294.622L209.144 295.425L211.392 298.335L212.391 301.002L212.578 302.953L212.327 305.584L211.828 308.007L211.411 309.449L210.079 311.826L209.662 312.412L208.485 313.292L207.081 316.183L205.289 317.278L203.228 322.113L204.072 326.283L205.602 328.294L206.789 329.431L207.163 330.124L207.142 332.228L207.027 332.968L207.019 333.018L203.81 332.561L193.014 328.325L188.6 328.14L181.563 330.72L177.836 330.782L175.358 329.045L178.575 323.553L178.148 320.087L173.057 316.485L165.082 313.799L156.805 312.574L144.207 313.901L137.044 310.638L129.297 305.87Z"/>
</mask>
<path d="M129.297 305.87V305.831L129.235 301.549L128.538 298.429L127.518 298.213L125.895 298.171L121.636 299.036L120.856 298.835L120.669 298.35L120.888 297.63V296.739L120.295 295.559L119.327 292.494L117.818 291.448L113.664 289.454L112.508 289.151L111.728 289.255L111.165 289.549L110.166 289.486L109.635 289.074L108.823 287.296L115.757 283.005L123.576 273.532L124.377 269.207L123.918 268.191L123.043 266.697L122.063 265.722L121.012 264.912L119.888 264.448L117.514 264.05L117.421 258.956L116.753 255.045L117.421 252.718L118.419 251.195L121.324 249.672L121.575 246.023L123.812 242.437L125.604 240.258L125.812 238.833L125.385 237.827L123.98 236.526L123.105 235.452L121.449 231.377L135.546 231.656L141.209 232.617L143.833 233.578L147.237 235.261L148.924 235.686L155.089 236.47L157.024 235.731L157.211 235.152L157.337 234.47L157.182 233.882L156.869 233.205L156.682 232.446L156.495 231.021L156.621 229.276L159.464 221.611L160.839 219.038L161.525 217.044L162.067 212.119L165.439 214.362L166.72 216.595L167.5 218.746L168.157 221.52L168.875 222.327L169.687 222.596L171.102 222.168L177.411 223.735L178.441 224.364L178.879 226.002L167.5 233.011L163.378 237.896L163.535 239.491L168.813 242.067L171 243.554L175.976 245.793L180.598 245.282L183.596 249.193L187.449 259.177L192.196 260.579L193.32 262.637L193.039 263.766L192.572 264.657L192.072 267.322L204.701 267.39L208.74 274.478L209.739 277.019L212.299 285.866L208.895 292.093L208.738 294.622L209.144 295.425L211.392 298.335L212.391 301.002L212.578 302.953L212.327 305.584L211.828 308.007L211.411 309.449L210.079 311.826L209.662 312.412L208.485 313.292L207.081 316.183L205.289 317.278L203.228 322.113L204.072 326.283L205.602 328.294L206.789 329.431L207.163 330.124L207.142 332.228L207.027 332.968L207.019 333.018L203.81 332.561L193.014 328.325L188.6 328.14L181.563 330.72L177.836 330.782L175.358 329.045L178.575 323.553L178.148 320.087L173.057 316.485L165.082 313.799L156.805 312.574L144.207 313.901L137.044 310.638L129.297 305.87Z" fill="#E5E5E5" stroke="#BCBCBC" mask="url(#path-9-inside-8_920_2818)"/>
<mask id="path-10-inside-9_920_2818" fill="white">
<path d="M460.487 316.426L459.402 316.866L446.729 317.516L446.763 317.457L447.137 316.803L448.365 316.449L448.917 316.172L449.417 315.771L447.449 307.851L444.034 309.276L443.284 309.662L442.598 309.864L435.195 310.348L434.164 310.235L432.29 309.824L424.846 309.182L421.464 309.898L420.34 309.393L419.215 308.317L417.924 305.691L417.091 301.528L416.653 300.499L414.56 296.91L414.09 295.638L412.622 293.28L410.716 292.225L409.653 291.081L408.799 290.54L407.643 290.308L406.768 289.871L405.457 288.548L403.801 286.209L402.448 285.127L401.428 284.556L395.389 283.712L393.515 282.847L392.578 279.709L393.795 278.044L394.201 276.499L394.014 275.577L393.451 273.985L393.264 272.814L393.232 270.717L392.826 269.656L391.598 268.402L391.139 266.67L390.888 264.552L389.951 263.304L388.139 261.397L383.413 259.178L381.696 259.797L380.041 260.586L379 260.927H377.937L376.813 260.649L373.877 259.597L368.724 257.085L365.381 254.768L361.748 251.534L360.56 248.372L362.778 246.302L366.068 245.079L367.536 244.165L370.16 241.956L371.597 241.228L372.721 241.059L373.658 241.617L374.542 242.356L375.479 242.898L376.686 243.177L384.129 242.714L385.285 242.372L385.659 241.903L385.368 241.315L379.663 234.574L378.247 232.389L393.011 226.326L398.759 222.664L399.301 221.709L399.239 221.038L399.114 220.495L399.071 219.958L399.114 219.436V218.8L399.052 218.071L398.636 216.707L399.01 214.479L400.863 210.266L402.331 203.732L403.3 199.429L404.392 198.747L405.767 198.11L407.048 197.944L408.172 197.908L409.152 198.001L410.34 198.28L411.183 198.885L412.871 200.483L414.587 201.755L415.087 202.437L415.525 203.312L417.919 205.623L424.311 208.301L430.588 205.788L432.93 205.436L435.533 203.668L440.124 203.498L441.654 202.894L442.946 202.238L443.509 201.71L444.134 199.714L446.601 206.597L448.225 209.833L450.16 216.418L452.096 220.744L452.783 221.147L455.749 223.58L456.291 224.726L456.541 225.557L456.635 228.914L458.634 231.336L458.885 234.542L458.573 237.738L458.292 238.993L456.981 241.93L455.606 245.465L456.002 250.831L462.602 263.685L470.202 265.716L471.108 266.305L473.545 268.47L475.419 277.558L476.554 278.61L478.262 279.878L479.99 280.11L481.49 280.755L483.489 282.053L484.926 283.976L486.488 285.218L488.154 285.928L489.152 285.99L491.432 284.739L495.023 285.001L492.786 292.248L490.661 295.297L487.174 296.579L477.659 296.965L475.857 300.621L475.283 300.529L474.45 300.288L474.012 300.314L471.482 301.745L462.685 303.46L461.478 304.057L460.041 305.071L459.042 306.543L458.73 307.685L458.137 309.038L457.982 309.79L458.014 310.629L460.46 316.393L460.487 316.426Z"/>
</mask>
<path d="M460.487 316.426L459.402 316.866L446.729 317.516L446.763 317.457L447.137 316.803L448.365 316.449L448.917 316.172L449.417 315.771L447.449 307.851L444.034 309.276L443.284 309.662L442.598 309.864L435.195 310.348L434.164 310.235L432.29 309.824L424.846 309.182L421.464 309.898L420.34 309.393L419.215 308.317L417.924 305.691L417.091 301.528L416.653 300.499L414.56 296.91L414.09 295.638L412.622 293.28L410.716 292.225L409.653 291.081L408.799 290.54L407.643 290.308L406.768 289.871L405.457 288.548L403.801 286.209L402.448 285.127L401.428 284.556L395.389 283.712L393.515 282.847L392.578 279.709L393.795 278.044L394.201 276.499L394.014 275.577L393.451 273.985L393.264 272.814L393.232 270.717L392.826 269.656L391.598 268.402L391.139 266.67L390.888 264.552L389.951 263.304L388.139 261.397L383.413 259.178L381.696 259.797L380.041 260.586L379 260.927H377.937L376.813 260.649L373.877 259.597L368.724 257.085L365.381 254.768L361.748 251.534L360.56 248.372L362.778 246.302L366.068 245.079L367.536 244.165L370.16 241.956L371.597 241.228L372.721 241.059L373.658 241.617L374.542 242.356L375.479 242.898L376.686 243.177L384.129 242.714L385.285 242.372L385.659 241.903L385.368 241.315L379.663 234.574L378.247 232.389L393.011 226.326L398.759 222.664L399.301 221.709L399.239 221.038L399.114 220.495L399.071 219.958L399.114 219.436V218.8L399.052 218.071L398.636 216.707L399.01 214.479L400.863 210.266L402.331 203.732L403.3 199.429L404.392 198.747L405.767 198.11L407.048 197.944L408.172 197.908L409.152 198.001L410.34 198.28L411.183 198.885L412.871 200.483L414.587 201.755L415.087 202.437L415.525 203.312L417.919 205.623L424.311 208.301L430.588 205.788L432.93 205.436L435.533 203.668L440.124 203.498L441.654 202.894L442.946 202.238L443.509 201.71L444.134 199.714L446.601 206.597L448.225 209.833L450.16 216.418L452.096 220.744L452.783 221.147L455.749 223.58L456.291 224.726L456.541 225.557L456.635 228.914L458.634 231.336L458.885 234.542L458.573 237.738L458.292 238.993L456.981 241.93L455.606 245.465L456.002 250.831L462.602 263.685L470.202 265.716L471.108 266.305L473.545 268.47L475.419 277.558L476.554 278.61L478.262 279.878L479.99 280.11L481.49 280.755L483.489 282.053L484.926 283.976L486.488 285.218L488.154 285.928L489.152 285.99L491.432 284.739L495.023 285.001L492.786 292.248L490.661 295.297L487.174 296.579L477.659 296.965L475.857 300.621L475.283 300.529L474.45 300.288L474.012 300.314L471.482 301.745L462.685 303.46L461.478 304.057L460.041 305.071L459.042 306.543L458.73 307.685L458.137 309.038L457.982 309.79L458.014 310.629L460.46 316.393L460.487 316.426Z" fill="#E5E5E5" stroke="#BCBCBC" mask="url(#path-10-inside-9_920_2818)"/>
<mask id="path-11-inside-10_920_2818" fill="white">
<path d="M96.4456 123.838L98.6109 119.075L100.29 111.706L107.098 107.738L115.313 104.384L122.673 99.391L129.545 91.2905L139.06 75.3327L143.797 74.9331L146.576 75.1875L148.293 75.7643L153.801 78.5517L156.268 81.458L157.485 88.1807L158.735 90.0824L161.389 91.0021L166.334 91.854L166.926 92.2913L166.771 92.8887L165.367 93.7557L164.325 94.2382L163.212 94.8884L162.243 95.7346L155.267 103.818L154.298 105.371L153.86 106.466L154.205 108.029L154.549 109.156L154.642 110.49L154.485 112.094L153.361 116.351L151.706 118.05L152.205 119.369L152.517 119.908L152.955 120.52L153.425 121.018L153.924 121.465L154.455 121.838L155.048 122.164L155.735 122.439L156.421 122.486L157.139 122.3L158.544 120.281L159.825 118.792L160.303 118.123L161.678 117.458L166.051 117.722L166.633 120.125L168.048 123.359L168.361 124.895L169.236 125.818L169.986 126.41L177.523 130.287L180.615 134.458L181.053 135.215L182.022 140.106L182.147 144.077L181.49 146.514L181.459 147.841L181.99 149.464L183.063 151.303L184.707 153.128L185.936 154.931L187.497 158.201L188.59 160.02L191.307 162.331L193.785 165.682L199.221 161.807L207.467 159.413L208.882 161.356L212.225 165.791L212.569 166.816L213.632 167.998L214.256 168.418L219.067 169.014L219.484 170.831L219.39 171.856L219.046 173.901L218.234 176.417L215.1 178.99L204.565 181.604L203.596 185.294L203.315 189.092L204.845 193.153L194.121 201.403L195.744 203.088L197.317 204.143L197.941 204.437L198.286 204.923L198.347 206.97L197.909 209.177L197.941 221.337L195.661 220.904L193.995 225.156L192.652 227.144L190.965 228.688L189.716 229.293L187.436 230.094L186.344 230.636L185.313 231.313L184.334 232.8L183.314 235.248L182.563 239.885L180.585 245.273L175.964 245.784L170.987 243.545L168.801 242.058L163.522 239.481L163.365 237.887L167.487 233.002L178.866 225.992L178.428 224.355L177.398 223.725L171.089 222.159L169.674 222.587L168.862 222.317L168.144 221.511L167.487 218.736L166.707 216.586L165.426 214.353L162.054 212.11L161.992 211.475L161.763 206.806L161.055 205.886L159.763 204.609L154.64 201.847L156.108 196.448L155.828 194.431L155.361 192.88L154.517 192.073L152.018 191.214L151.164 191.059L149.519 190.33L148.104 188.163L148.355 180.637L149.895 171.666L150.082 167.031L150.52 164.498L152.103 161.379L149.855 160.457L147.73 158.695L144.793 153.574L140.233 148.086L136.725 145.039L134.883 144.106L133.478 143.717L130.355 144.055L135.884 138.459L132.885 134.48L132.573 133.397L132.229 130.803L132.167 129.533L132.605 123.675L128.763 124.77L125.805 126.333L123.723 126.655L118.851 126.919L116.602 127.925L114.405 129.192L112.688 129.518L111.127 129.311L106.962 127.976L106.316 127.603L105.024 126.472L104.129 126.052L101.089 125.289L99.9963 124.848L96.4456 123.838Z"/>
</mask>
<path d="M96.4456 123.838L98.6109 119.075L100.29 111.706L107.098 107.738L115.313 104.384L122.673 99.391L129.545 91.2905L139.06 75.3327L143.797 74.9331L146.576 75.1875L148.293 75.7643L153.801 78.5517L156.268 81.458L157.485 88.1807L158.735 90.0824L161.389 91.0021L166.334 91.854L166.926 92.2913L166.771 92.8887L165.367 93.7557L164.325 94.2382L163.212 94.8884L162.243 95.7346L155.267 103.818L154.298 105.371L153.86 106.466L154.205 108.029L154.549 109.156L154.642 110.49L154.485 112.094L153.361 116.351L151.706 118.05L152.205 119.369L152.517 119.908L152.955 120.52L153.425 121.018L153.924 121.465L154.455 121.838L155.048 122.164L155.735 122.439L156.421 122.486L157.139 122.3L158.544 120.281L159.825 118.792L160.303 118.123L161.678 117.458L166.051 117.722L166.633 120.125L168.048 123.359L168.361 124.895L169.236 125.818L169.986 126.41L177.523 130.287L180.615 134.458L181.053 135.215L182.022 140.106L182.147 144.077L181.49 146.514L181.459 147.841L181.99 149.464L183.063 151.303L184.707 153.128L185.936 154.931L187.497 158.201L188.59 160.02L191.307 162.331L193.785 165.682L199.221 161.807L207.467 159.413L208.882 161.356L212.225 165.791L212.569 166.816L213.632 167.998L214.256 168.418L219.067 169.014L219.484 170.831L219.39 171.856L219.046 173.901L218.234 176.417L215.1 178.99L204.565 181.604L203.596 185.294L203.315 189.092L204.845 193.153L194.121 201.403L195.744 203.088L197.317 204.143L197.941 204.437L198.286 204.923L198.347 206.97L197.909 209.177L197.941 221.337L195.661 220.904L193.995 225.156L192.652 227.144L190.965 228.688L189.716 229.293L187.436 230.094L186.344 230.636L185.313 231.313L184.334 232.8L183.314 235.248L182.563 239.885L180.585 245.273L175.964 245.784L170.987 243.545L168.801 242.058L163.522 239.481L163.365 237.887L167.487 233.002L178.866 225.992L178.428 224.355L177.398 223.725L171.089 222.159L169.674 222.587L168.862 222.317L168.144 221.511L167.487 218.736L166.707 216.586L165.426 214.353L162.054 212.11L161.992 211.475L161.763 206.806L161.055 205.886L159.763 204.609L154.64 201.847L156.108 196.448L155.828 194.431L155.361 192.88L154.517 192.073L152.018 191.214L151.164 191.059L149.519 190.33L148.104 188.163L148.355 180.637L149.895 171.666L150.082 167.031L150.52 164.498L152.103 161.379L149.855 160.457L147.73 158.695L144.793 153.574L140.233 148.086L136.725 145.039L134.883 144.106L133.478 143.717L130.355 144.055L135.884 138.459L132.885 134.48L132.573 133.397L132.229 130.803L132.167 129.533L132.605 123.675L128.763 124.77L125.805 126.333L123.723 126.655L118.851 126.919L116.602 127.925L114.405 129.192L112.688 129.518L111.127 129.311L106.962 127.976L106.316 127.603L105.024 126.472L104.129 126.052L101.089 125.289L99.9963 124.848L96.4456 123.838Z" fill="#FF9A02" stroke="#BCBCBC" mask="url(#path-11-inside-10_920_2818)"/>
<mask id="path-12-inside-11_920_2818" fill="white">
<path d="M96.4456 123.837L99.9984 124.855L101.091 125.296L104.131 126.059L105.026 126.48L106.318 127.611L106.964 127.984L111.129 129.318L112.69 129.525L114.407 129.199L116.605 127.933L118.853 126.926L123.725 126.663L125.807 126.34L128.765 124.778L132.607 123.683L132.169 129.541L132.231 130.811L132.575 133.404L132.888 134.488L135.886 138.467L130.357 144.062L133.48 143.725L134.885 144.113L136.727 145.046L140.235 148.094L144.796 153.582L147.732 158.703L149.857 160.465L152.105 161.386L150.522 164.506L150.084 167.039L149.897 171.673L148.357 180.644L148.106 188.17L149.521 190.337L151.166 191.067L152.02 191.221L154.519 192.081L155.363 192.887L155.83 194.439L156.111 196.455L154.642 201.855L159.765 204.616L161.057 205.894L161.765 206.814L161.994 211.482L162.056 212.117L161.514 217.042L160.828 219.036L159.453 221.609L156.61 229.274L156.485 231.019L156.672 232.444L156.859 233.203L157.171 233.88L157.326 234.468L157.201 235.15L157.014 235.729L155.078 236.468L148.914 235.684L147.226 235.259L143.822 233.576L141.198 232.615L135.535 231.654L121.439 231.375L119.658 226.846L119.314 224.733L117.597 221.298L118.035 219.571L118.846 218.227L120.002 217.07L121.22 216.394L124.176 215.385L125.467 214.812L127.945 212.879L129.694 210.677L121.281 199.932L118.158 196.125L112.775 187.848L110.464 184.949L109.777 181.787L108.466 180.953L107.03 179.593L104.584 177.847L102.771 174.502L102.179 172.063L98.5238 162.144L97.5251 160.823L96.4329 160.683L95.5276 161.057L94.7776 161.243L94.0487 161.213L93.4665 160.959L90.957 159.332L89.8329 158.867L88.9277 158.686L86.397 157.753L80.1094 153.037L76.1422 149.213L75.594 148.684L76.3016 148.815L77.0474 148.955L79.0448 149.769L80.086 150.44L80.63 147.945L86.4055 140.24L94.9029 127.211L96.4456 123.837Z"/>
</mask>
<path d="M96.4456 123.837L99.9984 124.855L101.091 125.296L104.131 126.059L105.026 126.48L106.318 127.611L106.964 127.984L111.129 129.318L112.69 129.525L114.407 129.199L116.605 127.933L118.853 126.926L123.725 126.663L125.807 126.34L128.765 124.778L132.607 123.683L132.169 129.541L132.231 130.811L132.575 133.404L132.888 134.488L135.886 138.467L130.357 144.062L133.48 143.725L134.885 144.113L136.727 145.046L140.235 148.094L144.796 153.582L147.732 158.703L149.857 160.465L152.105 161.386L150.522 164.506L150.084 167.039L149.897 171.673L148.357 180.644L148.106 188.17L149.521 190.337L151.166 191.067L152.02 191.221L154.519 192.081L155.363 192.887L155.83 194.439L156.111 196.455L154.642 201.855L159.765 204.616L161.057 205.894L161.765 206.814L161.994 211.482L162.056 212.117L161.514 217.042L160.828 219.036L159.453 221.609L156.61 229.274L156.485 231.019L156.672 232.444L156.859 233.203L157.171 233.88L157.326 234.468L157.201 235.15L157.014 235.729L155.078 236.468L148.914 235.684L147.226 235.259L143.822 233.576L141.198 232.615L135.535 231.654L121.439 231.375L119.658 226.846L119.314 224.733L117.597 221.298L118.035 219.571L118.846 218.227L120.002 217.07L121.22 216.394L124.176 215.385L125.467 214.812L127.945 212.879L129.694 210.677L121.281 199.932L118.158 196.125L112.775 187.848L110.464 184.949L109.777 181.787L108.466 180.953L107.03 179.593L104.584 177.847L102.771 174.502L102.179 172.063L98.5238 162.144L97.5251 160.823L96.4329 160.683L95.5276 161.057L94.7776 161.243L94.0487 161.213L93.4665 160.959L90.957 159.332L89.8329 158.867L88.9277 158.686L86.397 157.753L80.1094 153.037L76.1422 149.213L75.594 148.684L76.3016 148.815L77.0474 148.955L79.0448 149.769L80.086 150.44L80.63 147.945L86.4055 140.24L94.9029 127.211L96.4456 123.837Z" fill="#E5E5E5" stroke="#BCBCBC" mask="url(#path-12-inside-11_920_2818)"/>
<mask id="path-13-inside-12_920_2818" fill="white">
<path d="M139.06 75.3326L139.789 74.1094H139.832L144.538 66.7685L147.411 63.4231L150.743 60.6959L154.772 59.3521L158.739 56.5515L168.099 45.9236L171.712 43.9069L175.417 42.8647L199.592 38.9784L207.255 35.8932L210.835 30.1655L212.293 26.9389L215.353 24.6339L222.142 20.8061L223.933 19.0382L227.035 15.1312L228.827 13.4105L230.981 12.4399L232.533 13.0599L239.547 9.40925L246.88 10.8944L250.722 8.91734L254.521 8.39528L270.721 3.4253L281.333 5.41932L287.302 8.07864L291.945 7.41334L296.588 2.75811L301.893 0.762207L309.188 5.41744V12.7301L315.166 20.3575L322.828 21.4789L327.76 12.7301L334.392 12.7301L340.36 16.0528H348.32L358.269 22.6983L366.892 23.3617L374.852 26.0192L376.841 32.6609L370.872 34.653L366.892 41.291L360.26 41.9544L354.291 47.927L352.188 58.4682L343.068 58.6058L338.699 61.5931L338.214 65.7187L336.933 68.2838L334.778 71.2748L332.904 72.7618L326.585 76.1223L325.335 78.0202L324.991 79.6844L325.397 80.8397L325.21 82.4002L325.397 83.32L325.896 84.2567L326.27 85.2593L326.457 86.1527L326.489 88.1279L326.77 89.3906L326.863 90.4724L326.332 91.5486L325.208 92.3025L323.083 92.4589L321.834 92.687L320.637 92.6926L317.826 92.0217L316.483 92.0631L315.359 92.4834L314.141 93.4295L313.172 94.0119L311.955 94.1307L310.238 93.1374L307.48 90.9606L303.545 85.1953L303.107 83.989V83.4538L303.264 82.928L303.483 82.3814L303.202 81.4447L302.546 80.295L299.193 77.7412L295.923 77.86L289.291 78.2859L288.322 78.4687L287.417 79.0869L286.511 80.1631L285.075 83.5801L276.569 96.6166L275.819 98.098L274.497 99.651L272.716 101.34L268.624 103.262L266.406 103.995L262.273 104.628L261.274 104.898L260.369 105.037L259.464 105.094L258.588 105.842L257.995 106.517L256.933 113.014L253.561 112.282L252.738 111.836L250.405 110.256L241.015 106.901L236.143 103.292L235.04 102.638L233.895 102.503L232.52 102.81L230.085 103.822L228.67 104.233L227.327 104.493L226.296 104.581L223.642 105.054L222.611 105.377L221.455 106.389L220.238 107.895L216.385 113.762L209.764 121.316L204.038 121.706L200.789 122.22L196.915 124.529L197.946 126.459L189.971 128.67L186.254 127.518L184.65 127.234L183.318 127.202L181.027 127.388L179.684 127.705L178.873 127.98L177.53 130.279L169.993 126.403L169.242 125.811L168.367 124.887L168.055 123.351L166.639 120.117L166.057 117.714L161.684 117.45L160.309 118.115L159.831 118.785L158.55 120.273L157.145 122.292L156.427 122.479L155.741 122.431L155.055 122.156L154.462 121.83L153.93 121.457L153.431 121.01L152.962 120.513L152.524 119.9L152.211 119.361L151.712 118.042L153.367 116.344L154.491 112.086L154.649 110.482L154.555 109.148L154.211 108.021L153.867 106.459L154.304 105.364L155.273 103.811L162.249 95.727L163.218 94.8808L164.332 94.2305L165.373 93.7481L166.778 92.8811L166.933 92.2836L166.34 91.8464L161.395 90.9945L158.741 90.0748L157.492 88.1731L156.274 81.4503L153.807 78.5441L148.299 75.7566L146.583 75.1799L143.803 74.9255L139.06 75.3326Z"/>
</mask>
<path d="M139.06 75.3326L139.789 74.1094H139.832L144.538 66.7685L147.411 63.4231L150.743 60.6959L154.772 59.3521L158.739 56.5515L168.099 45.9236L171.712 43.9069L175.417 42.8647L199.592 38.9784L207.255 35.8932L210.835 30.1655L212.293 26.9389L215.353 24.6339L222.142 20.8061L223.933 19.0382L227.035 15.1312L228.827 13.4105L230.981 12.4399L232.533 13.0599L239.547 9.40925L246.88 10.8944L250.722 8.91734L254.521 8.39528L270.721 3.4253L281.333 5.41932L287.302 8.07864L291.945 7.41334L296.588 2.75811L301.893 0.762207L309.188 5.41744V12.7301L315.166 20.3575L322.828 21.4789L327.76 12.7301L334.392 12.7301L340.36 16.0528H348.32L358.269 22.6983L366.892 23.3617L374.852 26.0192L376.841 32.6609L370.872 34.653L366.892 41.291L360.26 41.9544L354.291 47.927L352.188 58.4682L343.068 58.6058L338.699 61.5931L338.214 65.7187L336.933 68.2838L334.778 71.2748L332.904 72.7618L326.585 76.1223L325.335 78.0202L324.991 79.6844L325.397 80.8397L325.21 82.4002L325.397 83.32L325.896 84.2567L326.27 85.2593L326.457 86.1527L326.489 88.1279L326.77 89.3906L326.863 90.4724L326.332 91.5486L325.208 92.3025L323.083 92.4589L321.834 92.687L320.637 92.6926L317.826 92.0217L316.483 92.0631L315.359 92.4834L314.141 93.4295L313.172 94.0119L311.955 94.1307L310.238 93.1374L307.48 90.9606L303.545 85.1953L303.107 83.989V83.4538L303.264 82.928L303.483 82.3814L303.202 81.4447L302.546 80.295L299.193 77.7412L295.923 77.86L289.291 78.2859L288.322 78.4687L287.417 79.0869L286.511 80.1631L285.075 83.5801L276.569 96.6166L275.819 98.098L274.497 99.651L272.716 101.34L268.624 103.262L266.406 103.995L262.273 104.628L261.274 104.898L260.369 105.037L259.464 105.094L258.588 105.842L257.995 106.517L256.933 113.014L253.561 112.282L252.738 111.836L250.405 110.256L241.015 106.901L236.143 103.292L235.04 102.638L233.895 102.503L232.52 102.81L230.085 103.822L228.67 104.233L227.327 104.493L226.296 104.581L223.642 105.054L222.611 105.377L221.455 106.389L220.238 107.895L216.385 113.762L209.764 121.316L204.038 121.706L200.789 122.22L196.915 124.529L197.946 126.459L189.971 128.67L186.254 127.518L184.65 127.234L183.318 127.202L181.027 127.388L179.684 127.705L178.873 127.98L177.53 130.279L169.993 126.403L169.242 125.811L168.367 124.887L168.055 123.351L166.639 120.117L166.057 117.714L161.684 117.45L160.309 118.115L159.831 118.785L158.55 120.273L157.145 122.292L156.427 122.479L155.741 122.431L155.055 122.156L154.462 121.83L153.93 121.457L153.431 121.01L152.962 120.513L152.524 119.9L152.211 119.361L151.712 118.042L153.367 116.344L154.491 112.086L154.649 110.482L154.555 109.148L154.211 108.021L153.867 106.459L154.304 105.364L155.273 103.811L162.249 95.727L163.218 94.8808L164.332 94.2305L165.373 93.7481L166.778 92.8811L166.933 92.2836L166.34 91.8464L161.395 90.9945L158.741 90.0748L157.492 88.1731L156.274 81.4503L153.807 78.5441L148.299 75.7566L146.583 75.1799L143.803 74.9255L139.06 75.3326Z" fill="#E5E5E5" stroke="#BCBCBC" mask="url(#path-13-inside-12_920_2818)"/>
<path d="M282.355 242.456L282.384 242.468L282.414 242.471L285.132 242.828L285.156 242.831L285.181 242.829L292.312 242.348L292.339 242.346L292.365 242.34L295.3 241.491L296.196 241.463L296.867 241.736L299.806 243.971L299.824 243.985L299.844 243.996L301.93 245.059L303.826 246.687L303.951 246.795L304.098 246.722L309.947 243.853L314.361 242.636L314.391 242.628L314.42 242.611L319.401 239.732L322.858 243.722L320.216 245.281L317.849 246.388L317.837 246.394L317.824 246.402L314.607 248.383L314.596 248.389L314.587 248.396L313.025 249.584L313.015 249.592L313.006 249.6L310.163 252.258L310.131 252.288L310.11 252.328L309.486 253.56L309.465 253.601L309.46 253.647L309.045 257.609L308.615 259.506L306.687 264.321L303.595 267.114L303.507 267.194L303.513 267.314L303.914 274.037L300.796 278.509L297.4 281.639L297.375 281.662L297.357 281.691L295.67 284.407L295.637 284.46L295.633 284.521L295.49 286.482L294.142 288.591L291.039 290.395L290.995 290.421L290.965 290.462L283.802 300.07L283.771 300.111L283.759 300.161L283.572 300.927L283.562 300.969L283.566 301.011L283.628 301.635L283.632 301.676L283.648 301.713L283.856 302.177L283.952 302.592L284.011 303.094L284.03 304.404L283.424 305.042L282.189 305.484L278.586 306.14L278.568 306.143L278.551 306.149L276.49 306.84L276.462 306.848L276.437 306.864L273.866 308.459L273.828 308.482L273.801 308.516L272.88 309.694L271.802 310.591L270.312 311.242L265.828 310.427L265.822 310.426L263.176 310.011L261.984 309.273L259.795 306.484L259.46 304.224L259.448 304.144L259.392 304.087L257.594 302.224L257.62 301.793L257.622 301.758L257.614 301.722L257.215 299.976V299.211L257.615 297.409L257.622 297.375L257.62 297.339L257.562 296.46L258.153 295.225L261.636 293.518L261.702 293.486L261.74 293.424L263.597 290.38L266.682 287.22L266.719 287.182L266.738 287.133L268.705 281.843L268.72 281.801V281.757L268.753 275.996L268.783 275.308L269.658 269.106L269.659 269.094L269.66 269.082L269.846 264.587L269.851 264.488L269.786 264.413L268.319 262.717L269.459 259.498L269.48 259.437L269.47 259.375L268.441 252.825L268.166 239.289L272.078 238.426L282.355 242.456Z" fill="#E5E5E5" stroke="#BCBCBC" stroke-width="0.5"/>
<mask id="path-15-inside-13_920_2818" fill="white">
<path d="M268.19 252.846L262.963 249.956L259.84 249.461L251.99 246.447L243.682 245.59L238.892 239.949L236.332 235.823L235.301 233.412L234.77 232.406L233.334 230.48L231.334 228.403L226.982 225.263L224.545 223.114L221.579 221.409L219.891 220.84L213.906 221.284L209.605 219.157L197.943 221.347L197.911 209.186L198.349 206.979L198.288 204.933L197.943 204.446L197.319 204.152L195.746 203.097L194.123 201.412L204.847 193.163L203.317 189.101L203.598 185.303L204.567 181.613L215.102 178.999L218.236 176.426L219.048 173.91L219.392 171.865L219.486 170.84L219.069 169.023H219.328L227.669 169.542H227.919L237.894 167.34L242.619 163.829L243.588 160.793L243.62 160.746L250.679 155.533L255.781 149.402L260.373 148.08L263.256 145.457L263.777 144.219L263.694 142.741L263.027 141.793L261.433 140.372L259.778 138.583L258.341 137.422L256.841 136.857L255.466 136.763L252.802 137.151L251.427 137L250.012 136.331L248.429 134.842L248.178 132.835L248.333 130.63L248.833 129.126L249.332 128.001L250.112 127.041L253.246 124.043L255.245 122.471L257.181 119.05L256.931 113.038L257.993 106.541L258.586 105.867L259.461 105.118L260.366 105.062L261.272 104.922L262.27 104.653L266.403 104.02L268.622 103.287L272.714 101.364L274.495 99.6754L275.817 98.1224L276.567 96.6411L285.073 83.6045L286.509 80.1876L287.414 79.1114L288.32 78.4932L289.288 78.3104L295.92 77.8844L299.19 77.7657L302.544 80.3195L303.2 81.4692L303.481 82.4059L303.262 82.9524L303.105 83.4783V84.0135L303.542 85.2197L307.478 90.9851L310.236 93.1619L311.953 94.1551L313.17 94.0364L314.139 93.454L315.357 92.5079L316.481 92.0876L317.824 92.0461L320.635 92.7171L321.831 92.7114L323.081 92.4834L325.206 92.327L326.33 91.5731L326.861 90.4969L326.767 89.4151L326.487 88.1523L326.455 86.1772L326.268 85.2838L325.894 84.2811L325.395 83.3444L325.208 82.4247L325.395 80.8642L324.989 79.7088L325.333 78.0446L326.583 76.1467L332.902 72.7863L334.776 71.2993L336.931 68.3082L338.212 65.7431L338.697 61.6175L343.065 58.6303L352.185 58.4927L346.072 63.2403L342.9 67.986L347.313 73.069L347.781 74.4788L347.812 75.8885L347.249 77.7092L346.686 78.7231L346.123 79.4827L345.656 79.967L345.375 80.3666L345.314 80.8246L345.501 81.2618L346.125 81.9686L346.656 82.9053L347.22 84.4545L347.812 85.7588L348.28 86.4863L348.769 86.8142L351.185 87.3344L351.852 87.5737L352.434 87.9375L352.976 88.7328L353.309 89.6469L353.683 91.1283L354.162 91.918L354.725 92.6248L355.162 93.4258L355.413 94.5943L355.632 96.528L354.54 102.363L352.292 106.208L351.063 107.725L350.001 108.322L349.315 108.26L348.815 109.252L348.628 110.077L350.129 118.068L350.003 120.918L348.161 130.253L347.381 132.432L346.319 133.992L344.194 135.434L335.001 138.889L333.971 138.9L332.991 138.595L330.992 137.309L329.929 137.321L328.805 137.569L327.401 138.052L325.703 138.363L324.526 138.44L323.807 138.389L323.057 138.223L322.328 137.897L321.653 137.696L320.903 137.794L320.206 138.25L319.394 139.183L318.935 140.029L318.519 141.299L318.123 144.929L317.488 146.164L314.802 149.356L314.74 150.74L315.085 151.859L316.022 153.533L316.396 154.43L316.647 155.186L316.74 155.751L317.584 157.508L317.958 158.461L321.53 165.041L323.684 167.402L329.536 170.018L327.403 171.882L326.498 172.499L325.811 173.219L325.312 173.56L324.645 173.637L323.593 173.139L322.437 172.953L320.907 173.041L318.21 173.726L316.43 174.534L312.932 177.521L311.715 178.283L304.426 179.857L308.049 185.337L308.674 186.936L309.673 193.051L312.9 198.121L315.493 200.939L315.274 201.663L315.306 202.484L315.151 203.131L315.525 204.036L316.368 205.195L322.469 209.982L323.905 211.459L324.781 213.429L325.624 219.092L329.028 220.947L329.122 223.582L328.059 226.873L324.279 231.671L321.406 234.206L319.521 236.322L319.46 239.43L314.296 242.408L309.862 243.631L303.991 246.511L302.074 244.864L299.96 243.786L296.993 241.53L296.243 241.225L295.264 241.255L292.297 242.112L285.166 242.593L282.448 242.237L272.1 238.179L267.914 239.102L268.19 252.846Z"/>
</mask>
<path d="M268.19 252.846L262.963 249.956L259.84 249.461L251.99 246.447L243.682 245.59L238.892 239.949L236.332 235.823L235.301 233.412L234.77 232.406L233.334 230.48L231.334 228.403L226.982 225.263L224.545 223.114L221.579 221.409L219.891 220.84L213.906 221.284L209.605 219.157L197.943 221.347L197.911 209.186L198.349 206.979L198.288 204.933L197.943 204.446L197.319 204.152L195.746 203.097L194.123 201.412L204.847 193.163L203.317 189.101L203.598 185.303L204.567 181.613L215.102 178.999L218.236 176.426L219.048 173.91L219.392 171.865L219.486 170.84L219.069 169.023H219.328L227.669 169.542H227.919L237.894 167.34L242.619 163.829L243.588 160.793L243.62 160.746L250.679 155.533L255.781 149.402L260.373 148.08L263.256 145.457L263.777 144.219L263.694 142.741L263.027 141.793L261.433 140.372L259.778 138.583L258.341 137.422L256.841 136.857L255.466 136.763L252.802 137.151L251.427 137L250.012 136.331L248.429 134.842L248.178 132.835L248.333 130.63L248.833 129.126L249.332 128.001L250.112 127.041L253.246 124.043L255.245 122.471L257.181 119.05L256.931 113.038L257.993 106.541L258.586 105.867L259.461 105.118L260.366 105.062L261.272 104.922L262.27 104.653L266.403 104.02L268.622 103.287L272.714 101.364L274.495 99.6754L275.817 98.1224L276.567 96.6411L285.073 83.6045L286.509 80.1876L287.414 79.1114L288.32 78.4932L289.288 78.3104L295.92 77.8844L299.19 77.7657L302.544 80.3195L303.2 81.4692L303.481 82.4059L303.262 82.9524L303.105 83.4783V84.0135L303.542 85.2197L307.478 90.9851L310.236 93.1619L311.953 94.1551L313.17 94.0364L314.139 93.454L315.357 92.5079L316.481 92.0876L317.824 92.0461L320.635 92.7171L321.831 92.7114L323.081 92.4834L325.206 92.327L326.33 91.5731L326.861 90.4969L326.767 89.4151L326.487 88.1523L326.455 86.1772L326.268 85.2838L325.894 84.2811L325.395 83.3444L325.208 82.4247L325.395 80.8642L324.989 79.7088L325.333 78.0446L326.583 76.1467L332.902 72.7863L334.776 71.2993L336.931 68.3082L338.212 65.7431L338.697 61.6175L343.065 58.6303L352.185 58.4927L346.072 63.2403L342.9 67.986L347.313 73.069L347.781 74.4788L347.812 75.8885L347.249 77.7092L346.686 78.7231L346.123 79.4827L345.656 79.967L345.375 80.3666L345.314 80.8246L345.501 81.2618L346.125 81.9686L346.656 82.9053L347.22 84.4545L347.812 85.7588L348.28 86.4863L348.769 86.8142L351.185 87.3344L351.852 87.5737L352.434 87.9375L352.976 88.7328L353.309 89.6469L353.683 91.1283L354.162 91.918L354.725 92.6248L355.162 93.4258L355.413 94.5943L355.632 96.528L354.54 102.363L352.292 106.208L351.063 107.725L350.001 108.322L349.315 108.26L348.815 109.252L348.628 110.077L350.129 118.068L350.003 120.918L348.161 130.253L347.381 132.432L346.319 133.992L344.194 135.434L335.001 138.889L333.971 138.9L332.991 138.595L330.992 137.309L329.929 137.321L328.805 137.569L327.401 138.052L325.703 138.363L324.526 138.44L323.807 138.389L323.057 138.223L322.328 137.897L321.653 137.696L320.903 137.794L320.206 138.25L319.394 139.183L318.935 140.029L318.519 141.299L318.123 144.929L317.488 146.164L314.802 149.356L314.74 150.74L315.085 151.859L316.022 153.533L316.396 154.43L316.647 155.186L316.74 155.751L317.584 157.508L317.958 158.461L321.53 165.041L323.684 167.402L329.536 170.018L327.403 171.882L326.498 172.499L325.811 173.219L325.312 173.56L324.645 173.637L323.593 173.139L322.437 172.953L320.907 173.041L318.21 173.726L316.43 174.534L312.932 177.521L311.715 178.283L304.426 179.857L308.049 185.337L308.674 186.936L309.673 193.051L312.9 198.121L315.493 200.939L315.274 201.663L315.306 202.484L315.151 203.131L315.525 204.036L316.368 205.195L322.469 209.982L323.905 211.459L324.781 213.429L325.624 219.092L329.028 220.947L329.122 223.582L328.059 226.873L324.279 231.671L321.406 234.206L319.521 236.322L319.46 239.43L314.296 242.408L309.862 243.631L303.991 246.511L302.074 244.864L299.96 243.786L296.993 241.53L296.243 241.225L295.264 241.255L292.297 242.112L285.166 242.593L282.448 242.237L272.1 238.179L267.914 239.102L268.19 252.846Z" fill="#E5E5E5" stroke="#BCBCBC" mask="url(#path-15-inside-13_920_2818)"/>
<mask id="path-16-inside-14_920_2818" fill="white">
<path d="M268.191 252.846L269.221 259.412L268.033 262.769L269.595 264.574L269.408 269.069L268.533 275.281L268.501 275.982L268.469 281.753L266.501 287.044L263.399 290.221L261.525 293.292L257.963 295.037L257.307 296.411L257.368 297.353L256.963 299.181V300.005L257.368 301.777L257.337 302.318L249.923 306.754L249.173 307.551L248.423 308.524L248.89 308.854L249.36 309.142L249.797 309.199L249.61 309.93L248.756 310.054L247.643 309.849L246.674 309.278L246.206 308.409L246.07 307.065L245.611 305.567L244.955 304.193L243.238 303.015L242.394 302.923L241.895 303.371L241.927 305.182L241.74 306.645L241.198 308.313L240.386 309.898L239.679 310.499L238.95 310.606L238.387 310.273L238.013 309.851L237.826 309.285L237.722 308.797L237.388 307.727L236.296 310.243L235.108 310.84L229.913 312.58L228.038 312.631L226.634 312.054L224.562 310.115L223.23 309.116L220.576 308.102L219.388 308.143L218.795 308.545L218.982 310.16L218.921 310.998L218.608 311.769L218.317 312.299L217.943 313.471L215.319 312.374L214.507 312.288L213.071 312.282L212.102 312.425L208.479 313.29L209.656 312.41L210.072 311.824L211.405 309.447L211.821 308.006L212.321 305.582L212.571 302.951L212.384 301L211.386 298.333L209.137 295.423L208.732 294.62L208.889 292.091L212.293 285.864L209.732 277.017L208.734 274.477L204.694 267.388L192.066 267.32L192.565 264.655L193.033 263.764L193.313 262.635L192.189 260.577L187.442 259.175L183.59 249.191L180.592 245.281L182.57 239.892L183.32 235.256L184.34 232.808L185.32 231.321L186.35 230.644L187.442 230.101L189.722 229.3L190.972 228.695L192.659 227.152L194.002 225.163L195.668 220.911L197.948 221.345L209.609 219.155L213.91 221.283L219.896 220.838L221.583 221.407L224.549 223.113L226.987 225.261L231.338 228.401L233.338 230.478L234.774 232.404L235.306 233.411L236.336 235.821L238.897 239.947L243.686 245.588L251.995 246.445L259.844 249.459L262.968 249.955L268.191 252.846Z"/>
</mask>
<path d="M268.191 252.846L269.221 259.412L268.033 262.769L269.595 264.574L269.408 269.069L268.533 275.281L268.501 275.982L268.469 281.753L266.501 287.044L263.399 290.221L261.525 293.292L257.963 295.037L257.307 296.411L257.368 297.353L256.963 299.181V300.005L257.368 301.777L257.337 302.318L249.923 306.754L249.173 307.551L248.423 308.524L248.89 308.854L249.36 309.142L249.797 309.199L249.61 309.93L248.756 310.054L247.643 309.849L246.674 309.278L246.206 308.409L246.07 307.065L245.611 305.567L244.955 304.193L243.238 303.015L242.394 302.923L241.895 303.371L241.927 305.182L241.74 306.645L241.198 308.313L240.386 309.898L239.679 310.499L238.95 310.606L238.387 310.273L238.013 309.851L237.826 309.285L237.722 308.797L237.388 307.727L236.296 310.243L235.108 310.84L229.913 312.58L228.038 312.631L226.634 312.054L224.562 310.115L223.23 309.116L220.576 308.102L219.388 308.143L218.795 308.545L218.982 310.16L218.921 310.998L218.608 311.769L218.317 312.299L217.943 313.471L215.319 312.374L214.507 312.288L213.071 312.282L212.102 312.425L208.479 313.29L209.656 312.41L210.072 311.824L211.405 309.447L211.821 308.006L212.321 305.582L212.571 302.951L212.384 301L211.386 298.333L209.137 295.423L208.732 294.62L208.889 292.091L212.293 285.864L209.732 277.017L208.734 274.477L204.694 267.388L192.066 267.32L192.565 264.655L193.033 263.764L193.313 262.635L192.189 260.577L187.442 259.175L183.59 249.191L180.592 245.281L182.57 239.892L183.32 235.256L184.34 232.808L185.32 231.321L186.35 230.644L187.442 230.101L189.722 229.3L190.972 228.695L192.659 227.152L194.002 225.163L195.668 220.911L197.948 221.345L209.609 219.155L213.91 221.283L219.896 220.838L221.583 221.407L224.549 223.113L226.987 225.261L231.338 228.401L233.338 230.478L234.774 232.404L235.306 233.411L236.336 235.821L238.897 239.947L243.686 245.588L251.995 246.445L259.844 249.459L262.968 249.955L268.191 252.846Z" fill="#E5E5E5" stroke="#BCBCBC" mask="url(#path-16-inside-14_920_2818)"/>
<path d="M234.959 102.889L236.008 103.511L240.869 107.112L240.898 107.134L240.933 107.147L250.293 110.49L252.6 112.052L252.61 112.059L252.62 112.065L253.443 112.511L253.474 112.529L253.509 112.536L256.695 113.233L256.934 118.981L255.059 122.296L253.098 123.839L253.088 123.846L253.079 123.855L249.946 126.853L249.934 126.865L249.924 126.876L249.144 127.835L249.123 127.862L249.11 127.892L248.611 129.017L248.606 129.029L248.602 129.039L248.102 130.543L248.092 130.573L248.09 130.605L247.935 132.81L247.933 132.834L247.936 132.859L248.187 134.865L248.199 134.955L248.264 135.017L249.847 136.506L249.875 136.532L249.911 136.55L251.327 137.219L251.365 137.237L251.407 137.241L252.781 137.392L252.813 137.396L252.844 137.391L255.483 137.005L256.793 137.096L258.22 137.633L259.616 138.761L261.256 140.534L261.264 140.543L261.273 140.551L262.845 141.952L263.454 142.818L263.53 144.168L263.054 145.301L260.254 147.848L255.718 149.154L255.644 149.175L255.595 149.235L250.515 155.338L243.478 160.537L243.444 160.563L243.419 160.598L243.387 160.645L243.368 160.675L243.357 160.709L242.411 163.668L237.793 167.099L227.898 169.284H227.691L219.35 168.766H219.09L214.354 168.179L213.802 167.807L212.798 166.69L212.47 165.713L212.457 165.675L212.433 165.643L209.09 161.207L207.678 159.268L207.575 159.126L207.406 159.175L199.16 161.569L199.119 161.58L199.083 161.605L193.848 165.337L191.517 162.184L191.499 162.16L191.478 162.142L188.791 159.859L187.729 158.089L186.169 154.825L186.161 154.808L186.151 154.792L184.922 152.989L184.913 152.975L184.902 152.962L183.275 151.157L182.227 149.363L181.718 147.806L181.747 146.555L182.397 144.144L182.407 144.109L182.406 144.072L182.28 140.1V140.079L182.275 140.06L181.306 135.169L181.298 135.128L181.278 135.092L180.84 134.334L180.825 134.311L177.83 130.272L179.042 128.196L179.763 127.952L181.068 127.645L183.325 127.461L184.628 127.492L186.192 127.77L189.899 128.918L189.969 128.94L190.039 128.92L198.014 126.709L198.315 126.626L198.168 126.351L197.249 124.63L200.876 122.469L204.062 121.964L209.784 121.574L209.886 121.568L209.954 121.49L216.576 113.936L216.587 113.923L216.596 113.908L220.44 108.054L221.636 106.573L222.739 105.608L223.702 105.307L226.33 104.838L227.35 104.751L227.363 104.75L227.376 104.747L228.719 104.488L228.73 104.486L228.742 104.483L230.157 104.072L230.169 104.068L230.183 104.062L232.599 103.057L233.911 102.765L234.959 102.889Z" fill="#E5E5E5" stroke="#BCBCBC" stroke-width="0.5"/>
<path d="M523.697 163.128L523.707 163.144L523.718 163.157L537.742 179.769L540.251 185.127L540.445 185.818L540.032 187.468L536.802 193.014L536.741 193.118L536.785 193.232L537.69 195.537L535.79 197.257L535.533 197.49L535.834 197.66L540.592 200.358L543.418 202.738L543.44 202.757L543.467 202.77L548.827 205.468L549.765 206.161L550.154 206.917L550.243 207.679L550.25 207.737L550.281 207.785L551.518 209.721L551.908 210.643L552.054 211.293L552.105 212.017L552.109 212.046L552.55 214.328L544.673 217.906L544.64 217.92L544.613 217.944L536.742 224.702L536.698 224.74L536.675 224.794L535.227 228.198L535.211 228.239L535.208 228.282L534.678 238.464L534.131 240.875L533.685 242.83L532.06 247.625L529.889 252.161L527.291 255.742L523.433 258.564L509.784 263.951L509.756 263.963L509.73 263.981L505.545 266.982L505.524 266.995L505.508 267.014L502.021 270.736L502.005 270.753L501.992 270.773L496.495 279.405L496.477 279.433L496.468 279.465L494.849 284.722L491.457 284.475L491.383 284.469L491.318 284.504L489.1 285.721L488.218 285.665L486.623 284.986L485.113 283.785L483.696 281.888L483.669 281.853L483.632 281.828L481.633 280.53L481.614 280.518L481.595 280.51L480.095 279.865L480.063 279.852L480.029 279.847L478.366 279.623L476.721 278.403L475.653 277.412L473.796 268.405L473.779 268.323L473.718 268.268L471.28 266.103L471.266 266.09L471.25 266.079L470.345 265.491L470.311 265.47L470.273 265.46L462.778 263.456L456.254 250.747L455.866 245.487L457.216 242.017L458.527 239.08L458.537 239.057L458.543 239.032L458.823 237.778L458.826 237.762L458.828 237.747L459.141 234.551L459.142 234.529L459.141 234.507L458.891 231.301L458.884 231.222L458.834 231.161L456.889 228.806L456.798 225.535L456.797 225.501L456.787 225.47L456.536 224.639L456.531 224.62L456.523 224.604L455.981 223.458L455.957 223.407L455.914 223.371L452.947 220.939L452.932 220.926L452.916 220.916L452.298 220.553L450.401 216.317L448.471 209.747L448.465 209.726L448.454 209.705L446.837 206.483L444.432 199.772L447.22 197.243L447.825 196.928L451.838 195.771L462.13 197.658L462.239 197.679L462.328 197.611L473.47 188.952L477.677 187.704L481.119 187.858L484.911 188.514L486.2 189.229L490.8 195.66L490.922 195.83L491.11 195.74L507.362 187.99L507.446 187.95L507.483 187.865L510.107 181.841L510.123 181.805L510.127 181.766L510.482 178.162L510.487 178.108L510.47 178.056L510.146 177.128L510.131 177.082L510.098 177.045L508.622 175.369L507.53 173.038L509.055 169.81L511.036 167.903L515.907 164.368L515.989 164.31L516.007 164.21L516.287 162.614L516.292 162.583L516.29 162.553L516.065 159.314L516.587 158.499L517.489 158.045L518.292 157.933L518.305 157.931L518.317 157.928L520.17 157.464L523.697 163.128Z" fill="#E5E5E5" stroke="#BCBCBC" stroke-width="0.5"/>
<mask id="path-19-inside-15_920_2818" fill="white">
<path d="M350.127 118.052L351.782 119.214L352.353 119.765L352.936 120.159L353.56 120.211L354.247 120.04L355.163 119.9L356.287 119.963L357.379 120.311L358.316 120.82L358.879 121.38L361.221 124.467L361.688 125.236L362.115 126.186L362.374 127.924L362.406 130.31L361.875 135.576L360.375 139.916L360.188 141.073L360.126 142.666L359.782 145.056L359.803 146.554L360.063 147.41L361 148.126L361.499 148.701L362.3 154.195L363.029 156.713L364.652 157.598L369.378 171.89L370.254 176.979L369.161 179.474L370.785 183.523L375.729 185.1L377.791 185.488L378.602 185.829L379.227 186.351L380.132 187.552L381.163 188.246L383.037 188.96L385.691 189.716L387.221 190.373L391.292 192.986L402.329 203.717L400.861 210.251L399.008 214.464L398.634 216.691L399.05 218.056L399.112 218.785V219.421L399.069 219.943L399.112 220.48L399.237 221.023L399.299 221.694L398.757 222.649L393.009 226.311L378.245 232.374L379.66 234.559L385.366 241.3L385.657 241.888L385.283 242.357L384.127 242.699L376.683 243.162L375.477 242.883L374.539 242.34L373.656 241.602L372.718 241.044L371.594 241.213L370.158 241.941L367.534 244.15L366.065 245.064L362.776 246.287L360.558 248.356L357.591 248.032L354.614 247.156L353.469 246.986L352.302 246.996L351.427 247.079L350.583 246.971L349.708 246.764L348.76 246.378L347.583 245.712L346.021 244.106L343.49 242.717L336.952 238.021L324.26 231.649L328.04 226.85L329.103 223.559L329.009 220.925L325.605 219.07L324.762 213.406L323.886 211.437L322.45 209.959L316.349 205.172L315.506 204.013L315.132 203.108L315.287 202.462L315.255 201.64L315.474 200.916L312.881 198.099L309.654 193.029L308.655 186.913L308.03 185.315L304.407 179.834L311.696 178.26L312.913 177.499L316.411 174.512L318.191 173.703L320.888 173.019L322.418 172.93L323.574 173.117L324.626 173.615L325.293 173.537L325.792 173.196L326.479 172.476L327.384 171.86L329.517 169.996L323.665 167.38L321.511 165.018L317.939 158.439L317.565 157.485L316.721 155.729L316.628 155.163L316.377 154.408L316.003 153.51L315.066 151.837L314.721 150.717L314.783 149.334L317.469 146.141L318.104 144.907L318.5 141.277L318.916 140.006L319.375 139.16L320.187 138.227L320.884 137.771L321.634 137.673L322.309 137.875L323.038 138.201L323.788 138.367L324.507 138.418L325.684 138.34L327.382 138.029L328.786 137.547L329.91 137.298L330.973 137.287L332.972 138.572L333.952 138.878L334.982 138.866L344.175 135.412L346.3 133.97L347.362 132.409L348.142 130.23L349.984 120.896L350.127 118.052Z"/>
</mask>
<path d="M350.127 118.052L351.782 119.214L352.353 119.765L352.936 120.159L353.56 120.211L354.247 120.04L355.163 119.9L356.287 119.963L357.379 120.311L358.316 120.82L358.879 121.38L361.221 124.467L361.688 125.236L362.115 126.186L362.374 127.924L362.406 130.31L361.875 135.576L360.375 139.916L360.188 141.073L360.126 142.666L359.782 145.056L359.803 146.554L360.063 147.41L361 148.126L361.499 148.701L362.3 154.195L363.029 156.713L364.652 157.598L369.378 171.89L370.254 176.979L369.161 179.474L370.785 183.523L375.729 185.1L377.791 185.488L378.602 185.829L379.227 186.351L380.132 187.552L381.163 188.246L383.037 188.96L385.691 189.716L387.221 190.373L391.292 192.986L402.329 203.717L400.861 210.251L399.008 214.464L398.634 216.691L399.05 218.056L399.112 218.785V219.421L399.069 219.943L399.112 220.48L399.237 221.023L399.299 221.694L398.757 222.649L393.009 226.311L378.245 232.374L379.66 234.559L385.366 241.3L385.657 241.888L385.283 242.357L384.127 242.699L376.683 243.162L375.477 242.883L374.539 242.34L373.656 241.602L372.718 241.044L371.594 241.213L370.158 241.941L367.534 244.15L366.065 245.064L362.776 246.287L360.558 248.356L357.591 248.032L354.614 247.156L353.469 246.986L352.302 246.996L351.427 247.079L350.583 246.971L349.708 246.764L348.76 246.378L347.583 245.712L346.021 244.106L343.49 242.717L336.952 238.021L324.26 231.649L328.04 226.85L329.103 223.559L329.009 220.925L325.605 219.07L324.762 213.406L323.886 211.437L322.45 209.959L316.349 205.172L315.506 204.013L315.132 203.108L315.287 202.462L315.255 201.64L315.474 200.916L312.881 198.099L309.654 193.029L308.655 186.913L308.03 185.315L304.407 179.834L311.696 178.26L312.913 177.499L316.411 174.512L318.191 173.703L320.888 173.019L322.418 172.93L323.574 173.117L324.626 173.615L325.293 173.537L325.792 173.196L326.479 172.476L327.384 171.86L329.517 169.996L323.665 167.38L321.511 165.018L317.939 158.439L317.565 157.485L316.721 155.729L316.628 155.163L316.377 154.408L316.003 153.51L315.066 151.837L314.721 150.717L314.783 149.334L317.469 146.141L318.104 144.907L318.5 141.277L318.916 140.006L319.375 139.16L320.187 138.227L320.884 137.771L321.634 137.673L322.309 137.875L323.038 138.201L323.788 138.367L324.507 138.418L325.684 138.34L327.382 138.029L328.786 137.547L329.91 137.298L330.973 137.287L332.972 138.572L333.952 138.878L334.982 138.866L344.175 135.412L346.3 133.97L347.362 132.409L348.142 130.23L349.984 120.896L350.127 118.052Z" fill="#E5E5E5" stroke="#BCBCBC" mask="url(#path-19-inside-15_920_2818)"/>
<path d="M542.366 242.063L539.85 245.932L537.833 248.158L537.79 248.206L537.775 248.268L537.432 249.696L537.423 249.729L537.425 249.764L537.456 250.687L537.459 250.769L537.51 250.833L538.971 252.682L540.868 255.713L540.884 255.737L540.904 255.758L541.747 256.599L541.76 256.61L541.772 256.62L542.43 257.119L542.44 257.128L542.453 257.136L546.729 259.67L547.595 260.327L547.618 260.345L547.645 260.356L550.362 261.563L550.41 261.584L550.462 261.585L557.619 261.635L557.733 261.73L556.609 269.742L549.084 271.823L548.949 271.86L548.91 271.995L548.419 273.69L544.896 279.672L544.878 279.703L544.869 279.737L544.535 281.051L544.531 281.068L544.529 281.086L544.3 283.214L544.295 283.258L544.306 283.302L544.986 286.01L545.043 287.106L544.428 288.615L541.54 292.889L538.88 295.5L536.709 297.357L536.701 297.363L536.695 297.369L535.142 298.905L533.417 300.611L533.391 300.637L533.373 300.668L531.351 304.336L528.952 305.122L523.657 303.325L525.302 297.737L525.956 296.953L525.998 296.903L526.01 296.84L526.197 295.841L526.199 295.826L526.2 295.812L526.262 294.936L526.267 294.866L526.235 294.805L523.798 290.021L523.734 289.896L523.594 289.886L519.05 289.55L517.176 288.443L515.785 287.38L514.561 285.521L514.521 285.461L514.455 285.431L513.299 284.905L513.268 284.891L513.232 284.886L511.327 284.598L511.295 284.593L511.263 284.596L503.403 285.452L497.798 284.944L497.794 284.943L495.356 284.756L496.929 279.644L502.396 271.058L505.85 267.37L509.992 264.401L523.644 259.014L523.674 259.002L523.7 258.982L527.614 256.12L527.646 256.097L527.669 256.064L530.304 252.433L530.316 252.414L530.326 252.394L532.513 247.827L532.52 247.813L532.524 247.8L534.158 242.979L534.162 242.967L534.165 242.954L534.567 241.203L542.366 242.063Z" fill="#E5E5E5" stroke="#BCBCBC" stroke-width="0.5"/>
</svg>
