<svg width="32" height="32" viewBox="0 0 32 32" fill="none" xmlns="http://www.w3.org/2000/svg">
<path d="M2.66663 15.9999C2.66663 10.9716 2.66663 8.45745 4.22872 6.89535C5.79082 5.33325 8.30498 5.33325 13.3333 5.33325H18.6666C23.6949 5.33325 26.2091 5.33325 27.7712 6.89535C29.3333 8.45745 29.3333 10.9716 29.3333 15.9999V18.6666C29.3333 23.6949 29.3333 26.2091 27.7712 27.7712C26.2091 29.3333 23.6949 29.3333 18.6666 29.3333H13.3333C8.30498 29.3333 5.79082 29.3333 4.22872 27.7712C2.66663 26.2091 2.66663 23.6949 2.66663 18.6666V15.9999Z" stroke="black" stroke-width="1.5"/>
<path opacity="0.5" d="M9.33337 5.33325V3.33325" stroke="black" stroke-width="1.5" stroke-linecap="round"/>
<path opacity="0.5" d="M22.6666 5.33325V3.33325" stroke="black" stroke-width="1.5" stroke-linecap="round"/>
<path opacity="0.5" d="M2.66663 12H29.3333" stroke="black" stroke-width="1.5" stroke-linecap="round"/>
<path d="M12 19.3333L14 17.3333V22.6666" stroke="black" stroke-width="1.5" stroke-linecap="round" stroke-linejoin="round"/>
<path d="M17.3334 21.3333V18.6666C17.3334 17.9302 17.9303 17.3333 18.6667 17.3333C19.4031 17.3333 20 17.9302 20 18.6666V21.3333C20 22.0696 19.4031 22.6666 18.6667 22.6666C17.9303 22.6666 17.3334 22.0696 17.3334 21.3333Z" stroke="black" stroke-width="1.5" stroke-linecap="round"/>
</svg>
