<svg width="26" height="25" viewBox="0 0 26 25" fill="none" xmlns="http://www.w3.org/2000/svg">
<path d="M17.2706 16.8745C17.5118 16.8233 17.7485 16.7601 17.9802 16.6856C18.7023 16.4536 19.466 16.3198 20.2097 16.4685L21.5654 16.7396C22.2651 16.8796 22.882 16.2627 22.7421 15.563L22.4709 14.2073C22.3222 13.4636 22.456 12.6998 22.688 11.9778C22.9141 11.2743 23.0362 10.5242 23.0362 9.74555C23.0362 5.72035 19.7732 2.45728 15.748 2.45728C12.245 2.45728 9.31915 4.92863 8.61899 8.22293M17.2706 16.8745C17.375 16.3835 17.4299 15.8741 17.4299 15.3519C17.4299 11.3267 14.1668 8.06364 10.1416 8.06364C9.61942 8.06364 9.11006 8.11856 8.61899 8.22293M17.2706 16.8745C16.5704 20.1688 13.6446 22.6402 10.1416 22.6402C9.36297 22.6402 8.61285 22.5181 7.90936 22.292C7.18733 22.0599 6.42354 21.9261 5.67986 22.0749L4.3242 22.346C3.62448 22.486 3.00756 21.869 3.14751 21.1693L3.41864 19.8137C3.56737 19.07 3.43359 18.3062 3.20153 17.5842C2.97543 16.8807 2.85333 16.1305 2.85333 15.3519C2.85333 11.8489 5.32469 8.9231 8.61899 8.22293" stroke="white" stroke-width="2" stroke-linecap="round" stroke-linejoin="round"/>
</svg>
