<svg width="32" height="32" viewBox="0 0 32 32" fill="none" xmlns="http://www.w3.org/2000/svg">
<path d="M2.66663 21.3333C2.66663 17.562 2.66663 15.6764 3.8382 14.5048C5.00977 13.3333 6.89539 13.3333 10.6666 13.3333H21.3333C25.1045 13.3333 26.9901 13.3333 28.1617 14.5048C29.3333 15.6764 29.3333 17.562 29.3333 21.3333C29.3333 25.1045 29.3333 26.9901 28.1617 28.1617C26.9901 29.3333 25.1045 29.3333 21.3333 29.3333H10.6666C6.89539 29.3333 5.00977 29.3333 3.8382 28.1617C2.66663 26.9901 2.66663 25.1045 2.66663 21.3333Z" stroke="black" stroke-width="1.5"/>
<path opacity="0.5" d="M8 13.3334V10.6667C8 6.24847 11.5817 2.66675 16 2.66675C20.4183 2.66675 24 6.24847 24 10.6667V13.3334" stroke="black" stroke-width="1.5" stroke-linecap="round"/>
<g opacity="0.5">
<path d="M12 21.3333C12 22.0697 11.4031 22.6667 10.6667 22.6667C9.93033 22.6667 9.33337 22.0697 9.33337 21.3333C9.33337 20.597 9.93033 20 10.6667 20C11.4031 20 12 20.597 12 21.3333Z" fill="black"/>
<path d="M17.3334 21.3333C17.3334 22.0697 16.7364 22.6667 16 22.6667C15.2637 22.6667 14.6667 22.0697 14.6667 21.3333C14.6667 20.597 15.2637 20 16 20C16.7364 20 17.3334 20.597 17.3334 21.3333Z" fill="black"/>
<path d="M22.6667 21.3333C22.6667 22.0697 22.0698 22.6667 21.3334 22.6667C20.597 22.6667 20 22.0697 20 21.3333C20 20.597 20.597 20 21.3334 20C22.0698 20 22.6667 20.597 22.6667 21.3333Z" fill="black"/>
</g>
</svg>
